<svg width="18" height="18" viewBox="0 0 18 18" fill="none" xmlns="http://www.w3.org/2000/svg">
<g opacity="0.5">
<path d="M16.4775 13.7478C16.4775 14.0178 16.4175 14.2953 16.29 14.5653C16.1625 14.8353 15.9975 15.0903 15.78 15.3303C15.4125 15.7353 15.0075 16.0278 14.55 16.2153C14.1 16.4028 13.6125 16.5003 13.0875 16.5003C12.3225 16.5003 11.505 16.3203 10.6425 15.9528C9.78 15.5853 8.9175 15.0903 8.0625 14.4678C7.2 13.8378 6.3825 13.1403 5.6025 12.3678C4.83 11.5878 4.1325 10.7703 3.51 9.91525C2.895 9.06025 2.4 8.20525 2.04 7.35775C1.68 6.50275 1.5 5.68525 1.5 4.90525C1.5 4.39525 1.59 3.90775 1.77 3.45775C1.95 3.00025 2.235 2.58025 2.6325 2.20525C3.1125 1.73275 3.6375 1.50025 4.1925 1.50025C4.4025 1.50025 4.6125 1.54525 4.8 1.63525C4.995 1.72525 5.1675 1.86025 5.3025 2.05525L7.0425 4.50775C7.1775 4.69525 7.275 4.86775 7.3425 5.03275C7.41 5.19025 7.4475 5.34775 7.4475 5.49025C7.4475 5.67025 7.395 5.85025 7.29 6.02275C7.1925 6.19525 7.05 6.37525 6.87 6.55525L6.3 7.14775C6.2175 7.23025 6.18 7.32775 6.18 7.44775C6.18 7.50775 6.1875 7.56025 6.2025 7.62025C6.225 7.68025 6.2475 7.72525 6.2625 7.77025C6.3975 8.01775 6.63 8.34025 6.96 8.73025C7.2975 9.12025 7.6575 9.51775 8.0475 9.91525C8.4525 10.3128 8.8425 10.6803 9.24 11.0178C9.63 11.3478 9.9525 11.5728 10.2075 11.7078C10.245 11.7228 10.29 11.7453 10.3425 11.7678C10.4025 11.7903 10.4625 11.7978 10.53 11.7978C10.6575 11.7978 10.755 11.7528 10.8375 11.6703L11.4075 11.1078C11.595 10.9203 11.775 10.7778 11.9475 10.6878C12.12 10.5828 12.2925 10.5303 12.48 10.5303C12.6225 10.5303 12.7725 10.5603 12.9375 10.6278C13.1025 10.6953 13.275 10.7928 13.4625 10.9203L15.945 12.6828C16.14 12.8178 16.275 12.9753 16.3575 13.1628C16.4325 13.3503 16.4775 13.5378 16.4775 13.7478Z" stroke="#807474" stroke-width="1.5" stroke-miterlimit="10"/>
<path d="M13.875 6.75051C13.875 6.30051 13.5225 5.61051 12.9975 5.04801C12.5175 4.53051 11.88 4.12551 11.25 4.12551" stroke="#807474" stroke-width="1.5" stroke-linecap="round" stroke-linejoin="round"/>
<path d="M16.5 6.75026C16.5 3.84775 14.1525 1.50025 11.25 1.50025" stroke="#807474" stroke-width="1.5" stroke-linecap="round" stroke-linejoin="round"/>
</g>
</svg>
