<svg width="19" height="18" viewBox="0 0 19 18" fill="none" xmlns="http://www.w3.org/2000/svg">
<g opacity="0.5">
<path d="M14.4727 12.6225L14.7783 14.9925C14.8567 15.615 14.1593 16.05 13.6029 15.7275L10.3196 13.86C9.95914 13.86 9.60653 13.8375 9.26174 13.7925C9.84161 13.14 10.1864 12.315 10.1864 11.4225C10.1864 9.29249 8.25873 7.56752 5.87658 7.56752C4.9676 7.56752 4.12915 7.815 3.43174 8.25C3.40823 8.0625 3.40039 7.87499 3.40039 7.67999C3.40039 4.26749 6.49562 1.5 10.3196 1.5C14.1436 1.5 17.2388 4.26749 17.2388 7.67999C17.2388 9.70499 16.1496 11.4975 14.4727 12.6225Z" stroke="#807474" stroke-width="1.5" stroke-linecap="round" stroke-linejoin="round"/>
<path d="M10.186 11.4225C10.186 12.315 9.84125 13.14 9.26138 13.7925C8.48562 14.6925 7.25536 15.27 5.87622 15.27L3.83102 16.4325C3.48623 16.635 3.04741 16.3575 3.09443 15.975L3.29033 14.4975C2.2403 13.8 1.56641 12.6825 1.56641 11.4225C1.56641 10.1025 2.303 8.94 3.43138 8.25C4.12879 7.815 4.96724 7.56752 5.87622 7.56752C8.25837 7.56752 10.186 9.29249 10.186 11.4225Z" stroke="#807474" stroke-width="1.5" stroke-linecap="round" stroke-linejoin="round"/>
</g>
</svg>
