<svg width="27" height="27" viewBox="0 0 27 27" fill="none" xmlns="http://www.w3.org/2000/svg">
<rect y="0.000488281" width="27" height="27" rx="5" fill="#161614"/>
<rect x="0.5" y="0.500488" width="26" height="26" rx="4.5" stroke="#DDDDDD" stroke-opacity="0.1"/>
<line x1="25.37" y1="1.33682" x2="15.37" y2="12.3368" stroke="#DDDDDD" stroke-opacity="0.1"/>
<line x1="25.1198" y1="25.7854" x2="14.6472" y2="15.3548" stroke="#DDDDDD" stroke-opacity="0.1"/>
<line x1="11.3536" y1="15.354" x2="1.35355" y2="25.354" stroke="#DDDDDD" stroke-opacity="0.1"/>
<line x1="11.63" y1="12.3368" x2="1.62981" y2="1.33684" stroke="#DDDDDD" stroke-opacity="0.1"/>
<path d="M21 13.5005C21 14.1405 20.2137 14.668 20.0562 15.258C19.8937 15.868 20.305 16.718 19.9963 17.2517C19.6825 17.7942 18.7387 17.8592 18.2987 18.2992C17.8588 18.7392 17.7938 19.683 17.2513 19.9967C16.7175 20.3055 15.8675 19.8942 15.2575 20.0567C14.6675 20.2142 14.14 21.0005 13.5 21.0005C12.86 21.0005 12.3325 20.2142 11.7425 20.0567C11.1325 19.8942 10.2825 20.3055 9.74875 19.9967C9.20625 19.683 9.14125 18.7392 8.70125 18.2992C8.26125 17.8592 7.3175 17.7942 7.00375 17.2517C6.695 16.718 7.10625 15.868 6.94375 15.258C6.78625 14.668 6 14.1405 6 13.5005C6 12.8605 6.78625 12.333 6.94375 11.743C7.10625 11.133 6.695 10.283 7.00375 9.74924C7.3175 9.20674 8.26125 9.14174 8.70125 8.70174C9.14125 8.26174 9.20625 7.31799 9.74875 7.00424C10.2825 6.69549 11.1325 7.10674 11.7425 6.94424C12.3325 6.78674 12.86 6.00049 13.5 6.00049C14.14 6.00049 14.6675 6.78674 15.2575 6.94424C15.8675 7.10674 16.7175 6.69549 17.2513 7.00424C17.7938 7.31799 17.8588 8.26174 18.2987 8.70174C18.7387 9.14174 19.6825 9.20674 19.9963 9.74924C20.305 10.283 19.8937 11.133 20.0562 11.743C20.2137 12.333 21 12.8605 21 13.5005Z" fill="#DDDDDD"/>
<path d="M15.6674 11.2654L12.8124 14.1204L11.3324 12.6416C11.0112 12.3204 10.4899 12.3204 10.1687 12.6416C9.84742 12.9629 9.84742 13.4841 10.1687 13.8054L12.2449 15.8816C12.5574 16.1941 13.0649 16.1941 13.3774 15.8816L16.8299 12.4291C17.1512 12.1079 17.1512 11.5866 16.8299 11.2654C16.5087 10.9441 15.9887 10.9441 15.6674 11.2654Z" fill="#161614"/>
</svg>
