<svg width="42" height="42" viewBox="0 0 42 42" fill="none" xmlns="http://www.w3.org/2000/svg">
<g filter="url(#filter0_d_910_14784)">
<path d="M36 19C36 20.28 34.4275 21.335 34.1125 22.515C33.7875 23.735 34.61 25.435 33.9925 26.5025C33.365 27.5875 31.4775 27.7175 30.5975 28.5975C29.7175 29.4775 29.5875 31.365 28.5025 31.9925C27.435 32.61 25.735 31.7875 24.515 32.1125C23.335 32.4275 22.28 34 21 34C19.72 34 18.665 32.4275 17.485 32.1125C16.265 31.7875 14.565 32.61 13.4975 31.9925C12.4125 31.365 12.2825 29.4775 11.4025 28.5975C10.5225 27.7175 8.635 27.5875 8.0075 26.5025C7.39 25.435 8.2125 23.735 7.8875 22.515C7.5725 21.335 6 20.28 6 19C6 17.72 7.5725 16.665 7.8875 15.485C8.2125 14.265 7.39 12.565 8.0075 11.4975C8.635 10.4125 10.5225 10.2825 11.4025 9.4025C12.2825 8.5225 12.4125 6.635 13.4975 6.0075C14.565 5.39 16.265 6.2125 17.485 5.8875C18.665 5.5725 19.72 4 21 4C22.28 4 23.335 5.5725 24.515 5.8875C25.735 6.2125 27.435 5.39 28.5025 6.0075C29.5875 6.635 29.7175 8.5225 30.5975 9.4025C31.4775 10.2825 33.365 10.4125 33.9925 11.4975C34.61 12.565 33.7875 14.265 34.1125 15.485C34.4275 16.665 36 17.72 36 19Z" fill="white"/>
</g>
<path d="M25.4458 15.4259L20.2499 20.4725L17.5564 17.8586C16.9718 17.2907 16.0231 17.2907 15.4385 17.8586C14.8538 18.4264 14.8538 19.3478 15.4385 19.9157L19.2171 23.5857C19.7859 24.1381 20.7095 24.1381 21.2782 23.5857L27.5615 17.483C28.1462 16.9151 28.1462 15.9937 27.5615 15.4259C26.9769 14.858 26.0305 14.858 25.4458 15.4259Z" fill="#FF4D24"/>
<defs>
<filter id="filter0_d_910_14784" x="0" y="0" width="42" height="42" filterUnits="userSpaceOnUse" color-interpolation-filters="sRGB">
<feFlood flood-opacity="0" result="BackgroundImageFix"/>
<feColorMatrix in="SourceAlpha" type="matrix" values="0 0 0 0 0 0 0 0 0 0 0 0 0 0 0 0 0 0 127 0" result="hardAlpha"/>
<feOffset dy="2"/>
<feGaussianBlur stdDeviation="3"/>
<feComposite in2="hardAlpha" operator="out"/>
<feColorMatrix type="matrix" values="0 0 0 0 0.898307 0 0 0 0 0.898307 0 0 0 0 0.898307 0 0 0 1 0"/>
<feBlend mode="normal" in2="BackgroundImageFix" result="effect1_dropShadow_910_14784"/>
<feBlend mode="normal" in="SourceGraphic" in2="effect1_dropShadow_910_14784" result="shape"/>
</filter>
</defs>
</svg>
