<svg width="27" height="27" viewBox="0 0 27 27" fill="none" xmlns="http://www.w3.org/2000/svg">
<rect y="0.000488281" width="27" height="27" rx="5" fill="#161614"/>
<rect x="0.5" y="0.500488" width="26" height="26" rx="4.5" stroke="#DDDDDD" stroke-opacity="0.1"/>
<path opacity="0.1" d="M15 7.50049C15 8.14049 14.2137 8.66799 14.0562 9.25799C13.8937 9.86799 14.305 10.718 13.9963 11.2517C13.6825 11.7942 12.7387 11.8592 12.2987 12.2992C11.8588 12.7392 11.7938 13.683 11.2513 13.9967C10.7175 14.3055 9.8675 13.8942 9.2575 14.0567C8.6675 14.2142 8.14 15.0005 7.5 15.0005C6.86 15.0005 6.3325 14.2142 5.7425 14.0567C5.1325 13.8942 4.2825 14.3055 3.74875 13.9967C3.20625 13.683 3.14125 12.7392 2.70125 12.2992C2.26125 11.8592 1.3175 11.7942 1.00375 11.2517C0.695 10.718 1.10625 9.86799 0.94375 9.25799C0.78625 8.66799 0 8.14049 0 7.50049C0 6.86049 0.78625 6.33299 0.94375 5.74299C1.10625 5.13299 0.695 4.28299 1.00375 3.74924C1.3175 3.20674 2.26125 3.14174 2.70125 2.70174C3.14125 2.26174 3.20625 1.31799 3.74875 1.00424C4.2825 0.695488 5.1325 1.10674 5.7425 0.944238C6.3325 0.786738 6.86 0.000488281 7.5 0.000488281C8.14 0.000488281 8.6675 0.786738 9.2575 0.944238C9.8675 1.10674 10.7175 0.695488 11.2513 1.00424C11.7938 1.31799 11.8588 2.26174 12.2987 2.70174C12.7387 3.14174 13.6825 3.20674 13.9963 3.74924C14.305 4.28299 13.8937 5.13299 14.0562 5.74299C14.2137 6.33299 15 6.86049 15 7.50049Z" fill="#0E1E18"/>
<path d="M10.44 5.31332L8.42047 7.33308L10.44 9.35275C10.7404 9.65327 10.7404 10.1401 10.44 10.4406C10.2899 10.5907 10.0931 10.6658 9.89646 10.6658C9.69945 10.6658 9.50265 10.5908 9.35267 10.4406L7.33267 8.42067L5.31283 10.4406C5.16276 10.5906 4.96595 10.6658 4.76909 10.6658C4.57229 10.6658 4.37562 10.5908 4.22541 10.4406C3.92502 10.1402 3.92502 9.65336 4.22541 9.35274L6.24491 7.33307L4.2253 5.31332C3.9249 5.01292 3.9249 4.52601 4.2253 4.22562C4.52564 3.92545 5.01226 3.92545 5.31272 4.22562L7.33265 6.24538L9.35244 4.22562C9.65295 3.92545 10.1396 3.92545 10.4399 4.22562C10.7404 4.52601 10.7404 5.01292 10.44 5.31332Z" fill="#0E1E18"/>
<line x1="25.37" y1="1.33682" x2="15.37" y2="12.3368" stroke="#DDDDDD" stroke-opacity="0.1"/>
<line x1="25.1198" y1="25.7854" x2="14.6472" y2="15.3548" stroke="#DDDDDD" stroke-opacity="0.1"/>
<line x1="11.3536" y1="15.354" x2="1.35355" y2="25.354" stroke="#DDDDDD" stroke-opacity="0.1"/>
<line x1="11.63" y1="12.3368" x2="1.62981" y2="1.33684" stroke="#DDDDDD" stroke-opacity="0.1"/>
<path d="M21 13.5005C21 14.1405 20.2137 14.668 20.0562 15.258C19.8937 15.868 20.305 16.718 19.9963 17.2517C19.6825 17.7942 18.7387 17.8592 18.2987 18.2992C17.8588 18.7392 17.7938 19.683 17.2513 19.9967C16.7175 20.3055 15.8675 19.8942 15.2575 20.0567C14.6675 20.2142 14.14 21.0005 13.5 21.0005C12.86 21.0005 12.3325 20.2142 11.7425 20.0567C11.1325 19.8942 10.2825 20.3055 9.74875 19.9967C9.20625 19.683 9.14125 18.7392 8.70125 18.2992C8.26125 17.8592 7.3175 17.7942 7.00375 17.2517C6.695 16.718 7.10625 15.868 6.94375 15.258C6.78625 14.668 6 14.1405 6 13.5005C6 12.8605 6.78625 12.333 6.94375 11.743C7.10625 11.133 6.695 10.283 7.00375 9.74924C7.3175 9.20674 8.26125 9.14174 8.70125 8.70174C9.14125 8.26174 9.20625 7.31799 9.74875 7.00424C10.2825 6.69549 11.1325 7.10674 11.7425 6.94424C12.3325 6.78674 12.86 6.00049 13.5 6.00049C14.14 6.00049 14.6675 6.78674 15.2575 6.94424C15.8675 7.10674 16.7175 6.69549 17.2513 7.00424C17.7938 7.31799 17.8588 8.26174 18.2987 8.70174C18.7387 9.14174 19.6825 9.20674 19.9963 9.74924C20.305 10.283 19.8937 11.133 20.0562 11.743C20.2137 12.333 21 12.8605 21 13.5005Z" fill="#DDDDDD"/>
<path d="M16.44 11.3133L14.4205 13.3331L16.44 15.3528C16.7404 15.6533 16.7404 16.1401 16.44 16.4406C16.2899 16.5907 16.0931 16.6658 15.8965 16.6658C15.6994 16.6658 15.5026 16.5908 15.3527 16.4406L13.3327 14.4207L11.3128 16.4406C11.1628 16.5906 10.966 16.6658 10.7691 16.6658C10.5723 16.6658 10.3756 16.5908 10.2254 16.4406C9.92502 16.1402 9.92502 15.6534 10.2254 15.3527L12.2449 13.3331L10.2253 11.3133C9.9249 11.0129 9.9249 10.526 10.2253 10.2256C10.5256 9.92545 11.0123 9.92545 11.3127 10.2256L13.3327 12.2454L15.3524 10.2256C15.653 9.92545 16.1396 9.92545 16.4399 10.2256C16.7404 10.526 16.7404 11.0129 16.44 11.3133Z" fill="#161614"/>
</svg>
