<svg width="15" height="15" viewBox="0 0 15 15" fill="none" xmlns="http://www.w3.org/2000/svg">
<path d="M15 7.49927C15 8.13927 14.2137 8.66677 14.0562 9.25677C13.8937 9.86677 14.305 10.7168 13.9963 11.2505C13.6825 11.793 12.7387 11.858 12.2987 12.298C11.8588 12.738 11.7938 13.6818 11.2513 13.9955C10.7175 14.3043 9.8675 13.893 9.2575 14.0555C8.6675 14.213 8.14 14.9993 7.5 14.9993C6.86 14.9993 6.3325 14.213 5.7425 14.0555C5.1325 13.893 4.2825 14.3043 3.74875 13.9955C3.20625 13.6818 3.14125 12.738 2.70125 12.298C2.26125 11.858 1.3175 11.793 1.00375 11.2505C0.695 10.7168 1.10625 9.86677 0.94375 9.25677C0.78625 8.66677 0 8.13927 0 7.49927C0 6.85927 0.78625 6.33177 0.94375 5.74177C1.10625 5.13177 0.695 4.28177 1.00375 3.74802C1.3175 3.20552 2.26125 3.14052 2.70125 2.70052C3.14125 2.26052 3.20625 1.31677 3.74875 1.00302C4.2825 0.694268 5.1325 1.10552 5.7425 0.943018C6.3325 0.785518 6.86 -0.000732422 7.5 -0.000732422C8.14 -0.000732422 8.6675 0.785518 9.2575 0.943018C9.8675 1.10552 10.7175 0.694268 11.2513 1.00302C11.7938 1.31677 11.8588 2.26052 12.2987 2.70052C12.7387 3.14052 13.6825 3.20552 13.9963 3.74802C14.305 4.28177 13.8937 5.13177 14.0562 5.74177C14.2137 6.33177 15 6.85927 15 7.49927Z" fill="white"/>
<path d="M9.66742 5.26413L6.81242 8.11913L5.33242 6.64038C5.01117 6.31913 4.48992 6.31913 4.16867 6.64038C3.84742 6.96163 3.84742 7.48288 4.16867 7.80413L6.24492 9.88038C6.55742 10.1929 7.06492 10.1929 7.37742 9.88038L10.8299 6.42788C11.1512 6.10663 11.1512 5.58538 10.8299 5.26413C10.5087 4.94288 9.98867 4.94288 9.66742 5.26413Z" fill="#171717"/>
</svg>
