<svg width="16" height="16" viewBox="0 0 16 16" fill="none" xmlns="http://www.w3.org/2000/svg">
<path d="M6.69452 15.1788C6.69229 15.1788 6.6897 15.1788 6.68747 15.1788C6.59552 15.177 6.50876 15.1377 6.44646 15.0702L0.0890003 8.1573C-0.0200102 8.03865 -0.0300213 7.85993 0.0652702 7.72978C0.160562 7.60001 0.334089 7.55551 0.480177 7.62374L6.29889 10.3483C6.34784 10.3712 6.40568 10.3601 6.44313 10.3212L15.319 1.04454C15.4391 0.918849 15.6356 0.90513 15.7721 1.0134C15.9085 1.12167 15.94 1.31596 15.8447 1.46168L7.01562 14.9871C7.00301 15.0068 6.98818 15.0246 6.97187 15.0413L6.93293 15.0802C6.86953 15.1432 6.78351 15.1788 6.69452 15.1788Z" fill="#F8E11E"/>
</svg>
