<svg width="22" height="23" viewBox="0 0 22 23" fill="none" xmlns="http://www.w3.org/2000/svg">
<path d="M5.63711 11.5C1.78711 11.5 1.78711 13.2154 1.78711 15.3333V16.2917C1.78711 18.9367 1.78711 21.0833 6.59961 21.0833H14.2996C18.1496 21.0833 19.1121 18.9367 19.1121 16.2917V15.3333C19.1121 13.2154 19.1121 11.5 15.2621 11.5C14.2996 11.5 14.0301 11.7013 13.5296 12.075L12.5479 13.11C11.4121 14.3175 9.48711 14.3175 8.34174 13.11L7.36961 12.075C6.86911 11.7013 6.59961 11.5 5.63711 11.5Z" stroke="#FF4D24" stroke-width="2" stroke-miterlimit="10" stroke-linecap="round" stroke-linejoin="round"/>
<path d="M17.1879 11.5V5.75001C17.1879 3.63209 17.1879 1.91667 13.3379 1.91667H7.56289C3.71289 1.91667 3.71289 3.63209 3.71289 5.75001V11.5" stroke="#FF4D24" stroke-width="2" stroke-miterlimit="10" stroke-linecap="round" stroke-linejoin="round"/>
<path d="M9.05469 8.84541H12.2598" stroke="#FF4D24" stroke-width="2" stroke-linecap="round" stroke-linejoin="round"/>
<path d="M8.25586 5.97041H13.0684" stroke="#FF4D24" stroke-width="2" stroke-linecap="round" stroke-linejoin="round"/>
</svg>
