<svg width="36" height="36" viewBox="0 0 36 36" fill="none" xmlns="http://www.w3.org/2000/svg">
<path d="M23.0333 12.3701C27.2236 10.1602 28.3719 6.25663 28.4687 1.05485C28.4686 0.472316 27.9964 9.82892e-05 27.4139 9.82892e-05C22.7574 -0.0164954 19.5217 2.06841 17.9998 5.9403C16.4778 2.0682 13.2427 -0.0164251 8.58599 9.82892e-05C8.00352 9.82892e-05 7.5313 0.472316 7.5313 1.05478C7.5313 4.54621 8.2243 7.35611 9.5911 9.40635C10.4622 10.7131 11.5908 11.702 12.9662 12.37C8.65743 14.3005 5.64813 18.6295 5.64813 23.6485C5.12092 26.5612 14.5883 33.9283 17.3949 35.8093C17.758 36.0635 18.2414 36.0635 18.6045 35.8093C21.4842 33.8733 30.8701 26.5589 30.3511 23.6483C30.3512 18.6295 27.342 14.3006 23.0333 12.3701ZM20.7602 5.1701C21.9681 3.35829 23.7974 2.36562 26.3335 2.15306C26.0809 7.12344 24.2209 10.8248 19.0802 11.2534C19.2034 8.70273 19.7671 6.65973 20.7602 5.1701ZM11.3463 8.23628C10.3532 6.74664 9.78974 4.70371 9.66655 2.15299C14.8077 2.58288 16.666 6.28188 16.9192 11.2533C14.3835 11.0406 12.5539 10.0479 11.3463 8.23628ZM28.1669 23.7235H21.3888C19.9909 23.7754 19.992 25.7815 21.3888 25.8329H27.0054C26.3601 26.6151 25.5417 27.443 24.682 28.2423H22.5185C21.2541 28.2726 21.0773 30.0363 22.2937 30.327C20.5401 31.778 18.8634 33.0216 17.9998 33.6479C16.7376 32.7635 12.951 29.8316 11.1574 28.0921H12.3514C13.7492 28.0402 13.7482 26.0342 12.3514 25.9828H9.12226C7.81086 24.3971 7.76453 23.882 7.75862 23.5734H14.6108C16.0087 23.5215 16.0076 21.5154 14.6108 21.464H7.99297C8.17761 20.6173 8.46716 19.8094 8.84755 19.0546H12.3515C13.7494 19.0027 13.7483 16.9966 12.3515 16.9452H10.262C14.9677 11.375 24.1619 12.6496 27.227 19.2047H24.7781C23.3802 19.2565 23.3813 21.2626 24.7781 21.314H27.9735C28.15 22.0877 28.2578 22.9008 28.2366 23.7269C28.2133 23.7255 28.1903 23.7235 28.1669 23.7235Z" fill="#F8E11E"/>
</svg>
