<svg width="36" height="36" viewBox="0 0 36 36" fill="none" xmlns="http://www.w3.org/2000/svg">
<g clip-path="url(#clip0_1007_2513)">
<path d="M33.6142 28.5469H20.3925V26.1812H22.7269C24.9023 26.1815 26.9992 25.3686 28.6059 23.9021C30.2127 22.4356 31.2132 20.4214 31.4109 18.255C31.6087 16.0886 30.9894 13.9266 29.6748 12.1934C28.3601 10.4602 26.445 9.28106 24.3056 8.88751C24.4344 8.47045 24.4439 8.02564 24.333 7.60346C24.2221 7.18127 23.9952 6.79858 23.6779 6.49872L25.3526 3.56162C25.4993 3.30425 25.5387 2.99938 25.462 2.71319C25.3853 2.42701 25.1989 2.18262 24.9431 2.0331L21.728 0.153786C21.5995 0.0787105 21.4575 0.0298491 21.3101 0.0100298C21.1627 -0.00978957 21.0128 -0.000173267 20.8691 0.0383222C20.7254 0.0768176 20.5907 0.143428 20.473 0.234298C20.3552 0.325168 20.2566 0.438493 20.1829 0.567716L18.534 3.45939C18.021 3.26383 17.455 3.25824 16.9383 3.44365C16.4216 3.62905 15.9883 3.9932 15.7167 4.47027L10.4555 13.696C10.1539 14.2271 10.073 14.8553 10.2301 15.4454C10.3872 16.0355 10.7698 16.5403 11.2954 16.851L12.5335 17.5747L11.997 18.5154C11.9238 18.6437 11.8766 18.7853 11.8581 18.9318C11.8396 19.0784 11.8502 19.2272 11.8892 19.3697C11.9282 19.5122 11.9949 19.6457 12.0855 19.7624C12.176 19.8791 12.2887 19.9769 12.417 20.05C12.5454 20.1232 12.6869 20.1704 12.8335 20.1889C12.9801 20.2074 13.1289 20.1969 13.2714 20.1579C13.4139 20.1188 13.5473 20.0522 13.664 19.9616C13.7808 19.871 13.8785 19.7583 13.9517 19.63L14.4761 18.7102L15.6935 19.4218C16.0419 19.6266 16.4386 19.7347 16.8428 19.735C17.2494 19.7346 17.6486 19.6269 18.0002 19.4227C18.3517 19.2184 18.6431 18.925 18.8448 18.572L23.1579 11.0083C24.8316 11.1213 26.3959 11.8801 27.5208 13.1245C28.6457 14.3689 29.2432 16.0016 29.1873 17.6781C29.1314 19.3546 28.4264 20.9439 27.221 22.1105C26.0156 23.2772 24.4042 23.93 22.7268 23.9312H8.04551C7.74714 23.9312 7.46099 24.0497 7.25001 24.2607C7.03903 24.4716 6.92051 24.7578 6.92051 25.0562C6.92051 25.3545 7.03903 25.6407 7.25001 25.8516C7.46099 26.0626 7.74714 26.1812 8.04551 26.1812H10.3799V28.5469H2.38584C1.75334 28.5476 1.14694 28.7992 0.699673 29.2464C0.252404 29.6936 0.000781582 30.3 0 30.9325V33.6142C0.000725767 34.2467 0.252324 34.8531 0.699599 35.3004C1.14687 35.7477 1.7533 35.9993 2.38584 36H33.6142C34.2467 35.9993 34.8531 35.7477 35.3004 35.3004C35.7477 34.8531 35.9993 34.2467 36 33.6142V30.9325C35.9992 30.3 35.7476 29.6936 35.3003 29.2464C34.8531 28.7992 34.2467 28.5476 33.6142 28.5469ZM21.5742 2.67013L22.8469 3.41397L21.764 5.31304L20.4914 4.56913L21.5742 2.67013ZM16.8904 17.4573C16.8872 17.4635 16.8827 17.469 16.8772 17.4733C16.8717 17.4776 16.8653 17.4807 16.8585 17.4824C16.8537 17.484 16.8485 17.4846 16.8434 17.4841C16.8383 17.4836 16.8334 17.4819 16.829 17.4793L12.4313 14.9086C12.4169 14.8973 12.4069 14.8813 12.4031 14.8634C12.3992 14.8455 12.4017 14.8269 12.4102 14.8106L17.6713 5.58479C17.6745 5.57861 17.679 5.57319 17.6845 5.56889C17.69 5.56459 17.6964 5.5615 17.7031 5.55983C17.7072 5.55871 17.7114 5.55812 17.7156 5.55807C17.7217 5.55801 17.7276 5.55969 17.7327 5.56293L18.3949 5.94965L21.61 7.8291L22.1303 8.1332C22.1446 8.14454 22.1546 8.16052 22.1584 8.17839C22.1623 8.19626 22.1598 8.21491 22.1514 8.23115L16.8904 17.4573ZM12.63 26.1812H18.1425V28.5469H12.63V26.1812ZM33.75 33.6142C33.7491 33.6499 33.7345 33.684 33.7092 33.7093C33.684 33.7345 33.6499 33.7491 33.6142 33.75H2.38584C2.35009 33.7491 2.31604 33.7345 2.29076 33.7093C2.26547 33.684 2.25087 33.6499 2.25 33.6142V30.9325C2.25093 30.8968 2.26554 30.8628 2.29083 30.8376C2.31611 30.8123 2.35013 30.7978 2.38584 30.7969H33.6142C33.6499 30.7978 33.6839 30.8123 33.7092 30.8376C33.7345 30.8628 33.7491 30.8968 33.75 30.9325V33.6142Z" fill="#F8E11E"/>
</g>
<defs>
<clipPath id="clip0_1007_2513">
<rect width="36" height="36" fill="white"/>
</clipPath>
</defs>
</svg>
