<svg width="32" height="32" viewBox="0 0 32 32" fill="none" xmlns="http://www.w3.org/2000/svg">
<path d="M22.4156 13.4251C21.6967 12.8119 20.5936 12.9862 19.8256 12.6101C18.9222 12.1605 19.3001 10.3983 18.5955 9.61014C17.412 7.6221 14.0267 7.94156 13.2656 10.1402C12.779 11.2935 13.307 12.7874 12.5906 13.7701C11.0356 15.6887 9.27128 17.4278 7.33053 18.9551C6.31209 19.5434 4.97059 19.0478 3.85057 19.5352C2.03921 20.1702 1.38673 22.9001 2.70561 24.2852C3.23251 24.9125 3.98494 25.3076 4.80053 25.3851C5.72053 25.4751 6.10053 25.6551 6.36053 26.1201C6.71849 26.9093 6.57018 28.0979 7.25559 28.8201C7.52427 29.1608 7.86208 29.4407 8.24676 29.6415C8.63145 29.8422 9.05429 29.9592 9.48744 29.9847C9.9206 30.0102 10.3542 29.9436 10.7598 29.7894C11.1654 29.6352 11.5337 29.3969 11.8405 29.0901C12.6705 28.3251 12.6955 27.3151 12.7155 26.4251C12.6082 24.9457 13.3819 24.0215 14.4156 23.0351C14.9979 22.4455 15.6198 21.8028 16.2206 21.2101C16.8993 20.4491 17.682 19.7876 18.5456 19.2451C19.3988 18.7993 20.5138 19.1285 21.4605 18.8651C23.9221 18.3876 24.5488 14.7436 22.4156 13.4251Z" fill="#FF4D24"/>
<path d="M29.8544 7.24495L24.7544 2.14495C24.1359 1.60359 23.4664 2.82422 23.0194 3.13986C22.3477 3.92745 21.5204 4.56757 20.5894 5.01995C19.5583 5.36545 18.3497 4.97686 17.2894 5.44499C16.8738 5.61337 16.4983 5.86734 16.1873 6.19038C15.8763 6.51342 15.6368 6.8983 15.4844 7.31999C15.7655 7.27635 16.0504 7.26294 16.3344 7.27999C18.3513 7.32544 19.99 9.15197 20.1243 11.0201C20.1785 11.2353 20.1953 11.6376 20.3194 11.74C21.1865 11.9934 22.1063 11.919 23.0044 12.615C23.6229 13.0408 24.108 13.6331 24.4036 14.3234C24.6992 15.0136 24.7931 15.7735 24.6744 16.515C25.0948 16.3671 25.479 16.1315 25.8015 15.8237C26.1239 15.5159 26.3771 15.1431 26.5444 14.73C27.0253 13.6531 26.6358 12.455 26.9744 11.42C27.4275 10.4852 28.0693 9.6544 28.8594 8.97997C29.1851 8.53303 30.3915 7.86885 29.8544 7.24495Z" fill="#FF4D24"/>
</svg>
