<svg width="29" height="29" viewBox="0 0 29 29" fill="none" xmlns="http://www.w3.org/2000/svg">
<g clip-path="url(#clip0_910_14760)">
<path d="M28.1481 13.1543C27.6645 12.1511 26.9424 11.2817 26.0451 10.6222C25.1477 9.96258 24.1024 9.5329 23.0006 9.37071C20.5266 9.05353 16.2355 10.7074 14.2327 14.0017C16.3142 14.6937 18.1217 16.0299 19.3938 17.817C19.4259 17.8672 19.4477 17.9232 19.458 17.9819C19.4684 18.0406 19.467 18.1008 19.4539 18.1589C19.4408 18.2171 19.4164 18.272 19.3819 18.3207C19.3475 18.3693 19.3038 18.4106 19.2533 18.4423C19.1513 18.5049 19.0289 18.5253 18.9121 18.4991C18.7953 18.4728 18.6934 18.4021 18.628 18.3018C17.4573 16.6295 15.7597 15.3978 13.8067 14.8037C13.8067 14.8082 13.8022 14.8082 13.8022 14.8127C12.282 14.3811 10.6762 14.3483 9.13956 14.7176C9.13957 14.717 9.13946 14.7164 9.13924 14.7158C9.13901 14.7153 9.13868 14.7148 9.13826 14.7144C9.13783 14.7139 9.13733 14.7136 9.13677 14.7134C9.13622 14.7132 9.13562 14.713 9.13503 14.7131C8.34412 14.9002 7.57208 15.1596 6.82862 15.4879C6.77414 15.5122 6.71539 15.5256 6.65575 15.5271C6.5961 15.5287 6.53673 15.5185 6.48104 15.4971C6.42535 15.4757 6.37443 15.4435 6.33121 15.4023C6.28799 15.3612 6.25331 15.312 6.22916 15.2574C6.20501 15.2028 6.19186 15.1441 6.19048 15.0844C6.1891 15.0248 6.1995 14.9654 6.22109 14.9098C6.24268 14.8542 6.27504 14.8034 6.31631 14.7603C6.35758 14.7172 6.40695 14.6827 6.46159 14.6587C7.18209 14.3406 7.92778 14.0829 8.69096 13.8884C7.85995 11.9699 7.50399 9.87924 7.65328 7.79384L9.3661 8.13368L8.6275 5.84087C8.59707 5.74566 8.59876 5.64308 8.63233 5.54893C8.6659 5.45477 8.72948 5.37426 8.81328 5.31978L9.90985 4.60384C10.0108 4.53893 10.1333 4.51666 10.2507 4.5419C10.368 4.56714 10.4706 4.63784 10.5359 4.73852C10.6012 4.8392 10.624 4.96166 10.5992 5.07909C10.5744 5.19652 10.5042 5.29936 10.4038 5.36509L9.59719 5.89071L10.2134 7.81196L11.1197 7.26821C11.5684 7.00217 11.9307 6.61218 12.163 6.14514C12.3953 5.6781 12.4877 5.15389 12.4292 4.63556C12.1985 3.31761 11.6232 2.08416 10.7617 1.0604C10.7104 1.0014 10.6444 0.956945 10.5704 0.931494C10.4965 0.906044 10.4171 0.900494 10.3403 0.915401L5.35594 1.82165C5.25836 1.83971 5.1693 1.88901 5.10219 1.96212C0.362504 7.17759 0.0135974 19.8424 3.67746e-06 20.3817C-0.000403594 20.4847 0.0330278 20.585 0.0951599 20.6671C0.308129 20.9481 5.49188 27.6181 13.5666 28.0938H13.5938C13.6211 28.0931 13.6484 28.09 13.6753 28.0848C15.2148 27.7467 16.6375 27.0072 17.7988 25.9415C16.7549 25.4773 15.7877 24.857 14.9305 24.1018C14.8436 24.0196 14.7926 23.9065 14.7884 23.787C14.7841 23.6675 14.827 23.5511 14.9078 23.4629C14.991 23.376 15.1047 23.325 15.2249 23.3208C15.3451 23.3165 15.4622 23.3594 15.5513 23.4402C16.4132 24.2033 17.3984 24.8147 18.4648 25.2482L18.4694 25.2437C20.8891 26.2179 24.7814 26.5623 27.8355 21.084C28.5897 19.7623 28.9922 18.2693 29.0045 16.7476C29.006 15.4991 28.7125 14.2679 28.1481 13.1543ZM6.57485 23.3995C6.53389 23.4619 6.47811 23.5132 6.41247 23.5488C6.34684 23.5844 6.27341 23.6031 6.19875 23.6034C6.10847 23.603 6.02028 23.5762 5.945 23.5263C4.47576 22.5391 3.13349 21.3749 1.94844 20.0599C1.90887 20.0153 1.87848 19.9633 1.859 19.9069C1.83952 19.8506 1.83133 19.7909 1.83491 19.7314C1.83848 19.6718 1.85375 19.6136 1.87984 19.5599C1.90593 19.5063 1.94233 19.4583 1.98696 19.4188C2.03159 19.3792 2.08357 19.3488 2.13995 19.3293C2.19632 19.3098 2.25598 19.3016 2.31552 19.3052C2.37506 19.3088 2.43331 19.3241 2.48695 19.3502C2.54058 19.3762 2.58856 19.4126 2.62813 19.4573C3.75932 20.7166 5.0424 21.8308 6.44797 22.7741C6.54763 22.8403 6.61696 22.9433 6.64075 23.0606C6.66453 23.1778 6.64083 23.2997 6.57485 23.3995ZM26.3311 14.5817C26.2678 14.6135 26.1981 14.6306 26.1272 14.6315C26.0433 14.6322 25.9609 14.6092 25.8896 14.5651C25.8182 14.521 25.7608 14.4576 25.7239 14.3823C25.4409 13.7758 25.0138 13.2477 24.4799 12.8441C23.946 12.4406 23.3215 12.1737 22.6608 12.0668C22.6015 12.0599 22.5441 12.0412 22.4921 12.012C22.44 11.9827 22.3942 11.9435 22.3574 11.8965C22.3206 11.8494 22.2935 11.7956 22.2776 11.738C22.2617 11.6805 22.2573 11.6203 22.2648 11.5611C22.2723 11.5018 22.2915 11.4446 22.3212 11.3928C22.3509 11.341 22.3905 11.2956 22.4379 11.2592C22.4852 11.2228 22.5393 11.1962 22.597 11.1808C22.6547 11.1654 22.7149 11.1616 22.7741 11.1696C23.5822 11.2932 24.3476 11.6137 25.0026 12.1028C25.6577 12.592 26.1824 13.2347 26.5305 13.9745C26.5845 14.0814 26.5938 14.2055 26.5564 14.3193C26.519 14.4331 26.438 14.5275 26.3311 14.5817Z" fill="#FF4D24"/>
</g>
<defs>
<clipPath id="clip0_910_14760">
<rect width="29" height="29" fill="white"/>
</clipPath>
</defs>
</svg>
