<svg width="29" height="29" viewBox="0 0 29 29" fill="none" xmlns="http://www.w3.org/2000/svg">
<g clip-path="url(#clip0_910_14742)">
<path d="M22.8238 8.91234C21.6868 7.6023 20.1987 6.90987 18.5207 6.90987C17.3889 6.90987 16.3036 7.24224 15.3824 7.87112C15.055 8.09462 14.6962 8.2556 14.3235 8.35421C14.4041 7.45583 14.5842 6.68693 14.8558 6.08603C14.8573 6.08297 14.8587 6.07992 14.8601 6.07686C14.9013 5.98629 14.944 5.8985 14.9894 5.8158C15.4277 5.01649 16.0098 4.64419 16.8215 4.64419C17.2907 4.64419 17.6711 4.26379 17.6711 3.79458C17.6711 3.32537 17.2907 2.94497 16.8215 2.94497C15.8548 2.94497 15.0187 3.26708 14.3505 3.88685C13.8765 2.83458 13.058 1.53303 11.7206 0.76085C9.25301 -0.663775 6.10679 0.342276 5.97402 0.385833C5.56253 0.520807 5.31841 0.943686 5.40728 1.36747C5.43594 1.5042 6.13771 4.73187 8.60538 6.15661C9.61947 6.7421 10.7478 6.91706 11.7348 6.91706C12.129 6.91706 12.5005 6.88908 12.8332 6.84824C12.7297 7.32034 12.6576 7.83073 12.6164 8.37715C12.2102 8.28159 11.8185 8.1132 11.4637 7.87101C10.5424 7.24212 9.45725 6.90976 8.3254 6.90976C6.64742 6.90976 5.15942 7.60225 4.0223 8.91223C3.31248 9.73001 2.76182 10.7783 2.38867 12.0074H24.4574C24.0842 10.7784 23.5336 9.73006 22.8238 8.91234Z" fill="#FF4D24"/>
<path d="M5.59424 26.327C7.04623 28.0504 8.6197 28.9995 10.025 28.9995C10.9829 28.9995 11.8511 28.5599 12.5358 27.7282C12.7567 27.4599 13.0802 27.306 13.4235 27.306C13.7667 27.306 14.0902 27.4599 14.3111 27.7282C14.9959 28.5599 15.864 28.9995 16.8219 28.9995C18.2272 28.9995 19.8007 28.0504 21.2527 26.327C22.1136 25.3051 22.8758 24.0853 23.4875 22.769H3.35938C3.97109 24.0853 4.73331 25.305 5.59424 26.327Z" fill="#FF4D24"/>
<path d="M25.8848 9.17529H25.0838C25.3859 9.69763 25.6486 10.265 25.8704 10.8745H25.8848C26.6656 10.8745 27.3008 11.5097 27.3008 12.2905C27.3008 13.0713 26.6656 13.7065 25.8848 13.7065H0.849609C0.380398 13.7065 0 14.0869 0 14.5562V20.2202C0 20.6894 0.380398 21.0698 0.849609 21.0698H3.51172V18.521C3.51172 18.0518 3.89212 17.6714 4.36133 17.6714C4.83054 17.6714 5.21094 18.0518 5.21094 18.521V21.0698H6.91016V17.9546C6.91016 17.4854 7.29055 17.105 7.75977 17.105C8.22898 17.105 8.60938 17.4854 8.60938 17.9546V21.0698H10.3086V18.521C10.3086 18.0518 10.689 17.6714 11.1582 17.6714C11.6274 17.6714 12.0078 18.0518 12.0078 18.521V21.0698H13.707V17.9546C13.707 17.4854 14.0874 17.105 14.5566 17.105C15.0259 17.105 15.4062 17.4854 15.4062 17.9546V21.0698H17.1055V18.521C17.1055 18.0518 17.4859 17.6714 17.9551 17.6714C18.4243 17.6714 18.8047 18.0518 18.8047 18.521V21.0698H20.5039V17.9546C20.5039 17.4854 20.8843 17.105 21.3535 17.105C21.8227 17.105 22.2031 17.4854 22.2031 17.9546V21.0698H23.9023V18.521C23.9023 18.0518 24.2827 17.6714 24.752 17.6714C25.2212 17.6714 25.6016 18.0518 25.6016 18.521V21.0698H25.8848C27.6025 21.0698 29 19.6723 29 17.9546V12.2905C29 10.5728 27.6025 9.17529 25.8848 9.17529Z" fill="#FF4D24"/>
</g>
<defs>
<clipPath id="clip0_910_14742">
<rect width="29" height="29" fill="white"/>
</clipPath>
</defs>
</svg>
