<svg width="29" height="29" viewBox="0 0 29 29" fill="none" xmlns="http://www.w3.org/2000/svg">
<g clip-path="url(#clip0_910_14733)">
<path d="M23.0499 12.0835C22.8922 11.8551 22.5417 11.4325 22.5183 11.404C16.6609 5.10524 15.2067 1.42765 14.9031 0.451112C14.8154 0.182753 14.5643 0 14.2723 0C13.9862 0 13.7292 0.182753 13.6475 0.451112C13.338 1.42759 11.8838 5.10518 6.00298 11.4325C6.00298 11.4325 5.65844 11.8551 5.4949 12.0835C4.03493 14.1222 3.36917 16.6291 3.62025 19.136C3.86553 21.5801 4.98096 23.7786 6.65709 25.4405C8.3331 27.0965 10.5639 28.2158 13.0577 28.4842C13.4723 28.5299 13.8811 28.5527 14.2899 28.5527C16.9295 28.5527 19.4232 27.6219 21.4146 25.8802C23.6805 23.8986 24.9829 21.0548 24.9829 18.0795C24.9829 15.9209 24.3112 13.848 23.0499 12.0835ZM13.3868 25.5656C9.86973 25.1852 6.95541 22.2985 6.60869 18.851L7.77094 18.7389C8.06522 21.6614 10.5346 24.1081 13.5157 24.4302L13.3868 25.5656Z" fill="#FF4D24"/>
</g>
<defs>
<clipPath id="clip0_910_14733">
<rect width="28.5526" height="28.5526" fill="white"/>
</clipPath>
</defs>
</svg>
