<svg width="17" height="17" viewBox="0 0 17 17" fill="none" xmlns="http://www.w3.org/2000/svg">
<path d="M9.69477 5.28863L9.74259 5.50013L9.92613 5.38427L14.5104 2.48953L11.6156 7.07378L11.4998 7.25769L11.7114 7.3055L17 8.49969L11.7114 9.69449L11.4998 9.74231L11.6156 9.9256L14.5104 14.5105L9.92613 11.6151L9.74259 11.4993L9.69477 11.7114L8.50012 17L7.30548 11.7114L7.25766 11.4993L7.07412 11.6151L2.48964 14.5105L5.38463 9.9256L5.50049 9.74231L5.28881 9.69449L0 8.49969L5.28881 7.3055L5.50049 7.25769L5.38463 7.07378L2.48964 2.48953L7.07412 5.38427L7.25766 5.50013L7.30548 5.28863L8.50012 0L9.69477 5.28863Z" fill="#FF4D24"/>
</svg>
