<svg width="15" height="15" viewBox="0 0 15 15" fill="none" xmlns="http://www.w3.org/2000/svg">
<path d="M15 7.50024C15 8.14024 14.2137 8.66774 14.0562 9.25774C13.8937 9.86774 14.305 10.7177 13.9963 11.2515C13.6825 11.794 12.7387 11.859 12.2987 12.299C11.8588 12.739 11.7938 13.6827 11.2513 13.9965C10.7175 14.3052 9.8675 13.894 9.2575 14.0565C8.6675 14.214 8.14 15.0002 7.5 15.0002C6.86 15.0002 6.3325 14.214 5.7425 14.0565C5.1325 13.894 4.2825 14.3052 3.74875 13.9965C3.20625 13.6827 3.14125 12.739 2.70125 12.299C2.26125 11.859 1.3175 11.794 1.00375 11.2515C0.695 10.7177 1.10625 9.86774 0.94375 9.25774C0.78625 8.66774 0 8.14024 0 7.50024C0 6.86024 0.78625 6.33274 0.94375 5.74274C1.10625 5.13274 0.695 4.28274 1.00375 3.74899C1.3175 3.20649 2.26125 3.14149 2.70125 2.70149C3.14125 2.26149 3.20625 1.31774 3.74875 1.00399C4.2825 0.695244 5.1325 1.10649 5.7425 0.943994C6.3325 0.786494 6.86 0.000244141 7.5 0.000244141C8.14 0.000244141 8.6675 0.786494 9.2575 0.943994C9.8675 1.10649 10.7175 0.695244 11.2513 1.00399C11.7938 1.31774 11.8588 2.26149 12.2987 2.70149C12.7387 3.14149 13.6825 3.20649 13.9963 3.74899C14.305 4.28274 13.8937 5.13274 14.0562 5.74274C14.2137 6.33274 15 6.86024 15 7.50024Z" fill="#171717"/>
<path d="M9.66742 5.26511L6.81242 8.12011L5.33242 6.64136C5.01117 6.32011 4.48992 6.32011 4.16867 6.64136C3.84742 6.96261 3.84742 7.48386 4.16867 7.80511L6.24492 9.88136C6.55742 10.1939 7.06492 10.1939 7.37742 9.88136L10.8299 6.42886C11.1512 6.10761 11.1512 5.58636 10.8299 5.26511C10.5087 4.94386 9.98867 4.94386 9.66742 5.26511Z" fill="white"/>
</svg>
