<svg width="33" height="28" viewBox="0 0 33 28" fill="none" xmlns="http://www.w3.org/2000/svg">
<g clip-path="url(#clip0_1007_2010)">
<path d="M31.9097 10.3062C31.3485 9.60812 29.9559 7.48803 29.7869 7.25962C29.6178 7.03306 28.0737 5.51345 27.5038 5.04191C26.9356 4.57037 25.5204 3.14102 24.513 2.75052C23.5057 2.36003 22.4756 1.96217 22.2526 1.8977C22.0295 1.83323 21.8203 1.80376 21.6251 2.00453C21.6251 2.00453 21.3341 2.22188 21.3219 2.47423C21.3114 2.72658 21.2992 2.83341 21.2121 3.08944C21.1249 3.34547 21.0186 3.70097 21.043 3.81149C21.0657 3.92201 21.1615 3.99016 21.1615 3.99016C21.1615 3.99016 21.1232 4.24251 21.1964 4.35855C21.2678 4.47459 21.5258 4.4967 21.5258 4.4967C21.5258 4.4967 21.5624 4.60721 21.653 4.67721C21.7419 4.7472 21.789 4.84114 21.9807 4.77851C21.9807 4.77851 22.1689 4.97929 22.3014 4.73247C22.3014 4.73247 22.622 4.70852 22.765 4.598C22.9096 4.48749 23.0264 4.56853 23.0909 4.598C23.1536 4.62747 23.4098 4.69194 23.6869 4.59432C23.964 4.4967 24.0076 4.46354 24.0076 4.46354C24.0076 4.46354 24.1 4.47643 24.1488 4.43591C24.1488 4.43591 24.8407 4.92955 25.3531 5.72159C25.8672 6.51363 26.5975 7.74406 26.7543 7.94483C26.8781 8.10508 27.4916 9.14026 27.7704 9.6118C27.8227 9.70021 28.065 9.95993 28.1469 10.0207C28.9294 10.5917 30.2261 11.0559 30.2261 11.0559C29.8148 10.9067 28.8074 10.5954 28.1364 10.3909C28.1382 10.3946 28.1399 10.3983 28.1399 10.3983C28.1399 10.3983 26.9582 10.0999 26.1286 10.3486C25.862 10.4296 25.6598 10.5107 25.4803 10.5401C25.3165 10.5678 25.1683 10.6157 25.2642 10.6636C25.2764 10.6709 25.2886 10.6801 25.3008 10.6893C25.6354 10.9251 25.8672 11.0559 25.8672 11.0559C25.2903 10.8459 24.2673 10.4646 24.0703 10.3909C23.4447 10.2344 22.5471 10.1441 21.7192 10.3799C21.6251 10.4057 21.3323 10.5457 21.1824 10.6249C20.9855 10.728 20.7188 10.8349 20.5411 10.7833C20.2291 10.6912 19.1224 10.2454 18.9725 10.1165C18.8226 9.98756 18.6205 9.59522 18.7425 9.16236C18.8645 8.7295 18.9621 8.16034 19.0649 7.96509C19.1695 7.76985 19.3193 7.34435 19.3193 7.34435C19.3193 7.34435 19.3995 7.54513 19.6069 7.51381C19.8143 7.48434 19.9694 7.32594 20.0217 7.11227C20.074 6.8986 20.1768 6.521 20.189 6.36259C20.2012 6.20419 20.2692 5.44346 20.2361 5.28505C20.2012 5.12664 19.9764 4.9185 19.7986 5.07138V4.92219L19.8736 4.86509L19.8422 4.75825C19.8422 4.75825 19.8875 4.72141 19.891 4.7122C19.8945 4.70299 19.9171 4.7122 19.891 4.66431C19.8649 4.61642 19.8544 4.58879 19.8509 4.57037C19.8492 4.55195 19.8492 4.54274 19.8718 4.50038C19.8945 4.45801 19.9206 4.45433 19.9293 4.41197C19.9381 4.3696 19.9485 4.34565 19.9433 4.30882C19.9381 4.27198 19.9346 4.27935 19.9293 4.20751C19.9241 4.13751 19.9328 4.10068 19.9293 4.06752C19.9259 4.03437 19.9555 3.84464 19.9555 3.83359C19.9555 3.8207 19.9677 3.82438 19.9642 3.7857C19.9607 3.74518 19.9276 3.68255 19.9468 3.67334C19.9677 3.66413 20.0618 3.64387 20.0618 3.64387L19.9991 3.49099C19.9991 3.49099 20.0357 3.45783 20.0426 3.41731C20.0479 3.37863 20.074 3.40258 20.0513 3.35284C20.0287 3.30495 20.0252 3.29758 20.0235 3.2589C20.02 3.21838 20.0182 3.24969 20.02 3.16681C20.0235 3.08392 20.0269 3.09313 20.02 3.03603C20.0147 2.97893 20.0182 2.98445 20.006 2.91446C19.9938 2.84446 20.0025 2.82236 19.9834 2.77631C19.9625 2.73026 19.9659 2.73947 19.9468 2.70263C19.9259 2.66579 19.9119 2.64185 19.9067 2.62343C19.8997 2.60501 19.8997 2.60501 19.8997 2.60501L19.8335 2.46686L19.9032 2.40608L19.7655 2.28083H19.8683L19.7533 2.18873H19.8544L19.7219 2.104L19.7568 2.03953C19.7568 2.03953 19.6731 1.89402 19.5755 1.76508C19.4779 1.63798 19.4135 1.54589 19.4135 1.54589H19.4849C19.4849 1.54589 19.3699 1.39116 19.3385 1.35617C19.3071 1.32301 19.2496 1.26775 19.2496 1.26775H19.3734C19.3734 1.26775 19.1956 1.17565 19.1573 1.12961C19.1207 1.08356 18.9533 0.855154 18.7947 0.77595C18.6361 0.696747 18.5647 0.687537 18.4584 0.613859C18.3521 0.540181 18.1638 0.449925 18.0837 0.39835C18.0035 0.346775 17.817 0.212313 17.6619 0.182842C17.5068 0.15337 17.5103 0.118373 17.4284 0.116531C17.3412 0.114689 17.2105 0.125741 17.1756 0.0981118C17.1408 0.0704825 17.0798 0.0667986 17.0502 0.052063C17.0205 0.0373273 16.9892 0.052063 16.9491 0.0373273C16.909 0.0207498 16.8184 0.0428532 16.7852 0.0410112C16.7504 0.0391693 16.6301 0.0152239 16.6301 0.0152239C16.6301 0.0152239 16.5343 0.01154 16.4837 0.00969805C16.4349 0.00417219 16.3879 0.000488281 16.3879 0.000488281C16.3879 0.000488281 16.3426 0.00417219 16.292 0.00601414C16.2415 0.00785609 16.1456 0.01154 16.1456 0.01154C16.1456 0.01154 16.0254 0.0373273 15.9905 0.0391693C15.9556 0.0410112 15.872 0.0207498 15.8319 0.0354854C15.7918 0.052063 15.7535 0.0373273 15.7256 0.050221C15.6977 0.0649566 15.635 0.0686405 15.6001 0.0962698C15.5652 0.123899 15.4345 0.112847 15.3544 0.114689C15.2742 0.116531 15.2777 0.151528 15.1226 0.181C14.9674 0.210471 14.781 0.344934 14.7008 0.396508C14.6206 0.448083 14.4324 0.540181 14.3261 0.612017C14.2198 0.685695 14.1466 0.694905 13.988 0.774108C13.8294 0.853312 13.6621 1.08171 13.6255 1.12776C13.5889 1.17381 13.4093 1.26591 13.4093 1.26591H13.5331C13.5331 1.26591 13.4756 1.32117 13.4442 1.35432C13.4128 1.38748 13.2978 1.54404 13.2978 1.54404H13.3693C13.3693 1.54404 13.3065 1.63614 13.2072 1.76324C13.1096 1.89217 13.0259 2.03769 13.0259 2.03769L13.0608 2.10216L12.9283 2.18689H13.0294L12.9144 2.27898H13.0189L12.8813 2.40424L12.951 2.46502L12.8847 2.60317C12.8847 2.60317 12.8847 2.60317 12.8795 2.62159C12.8743 2.64001 12.8586 2.66395 12.8394 2.70079C12.8185 2.73763 12.822 2.72842 12.8011 2.77447C12.7802 2.82052 12.7889 2.84078 12.7784 2.91262C12.7662 2.98261 12.7697 2.97708 12.7645 3.03418C12.7593 3.09129 12.761 3.08208 12.7645 3.16496C12.768 3.24785 12.7645 3.21654 12.761 3.25706C12.7575 3.29574 12.7558 3.30311 12.7314 3.351C12.7087 3.40073 12.7349 3.37495 12.7401 3.41547C12.7453 3.45415 12.7837 3.48915 12.7837 3.48915L12.7209 3.64203C12.7209 3.64203 12.8168 3.66229 12.8359 3.6715C12.8569 3.68071 12.822 3.74518 12.8185 3.78386C12.815 3.82254 12.8272 3.8207 12.8272 3.83175C12.8272 3.8428 12.8569 4.03252 12.8534 4.06568C12.8499 4.09883 12.8586 4.13567 12.8534 4.20567C12.8481 4.27566 12.8447 4.27013 12.8394 4.30697C12.8342 4.34381 12.8447 4.36776 12.8534 4.41012C12.8621 4.45249 12.8882 4.45617 12.9109 4.49854C12.9335 4.5409 12.9335 4.55011 12.9301 4.56853C12.9266 4.58695 12.9161 4.61458 12.89 4.66247C12.8638 4.71036 12.8882 4.70115 12.89 4.71036C12.8935 4.71957 12.9388 4.75641 12.9388 4.75641L12.9074 4.86324L12.9823 4.92034V5.06954C12.8028 4.91666 12.578 5.1248 12.5449 5.28321C12.51 5.44162 12.5797 6.20234 12.5902 6.36075C12.6024 6.51916 12.7052 6.89676 12.7575 7.11043C12.8098 7.32409 12.9649 7.4825 13.1723 7.51197C13.3797 7.54329 13.4599 7.34251 13.4599 7.34251C13.4599 7.34251 13.6098 7.768 13.7143 7.96325C13.8189 8.1585 13.9165 8.72766 14.0368 9.16052C14.157 9.59338 13.9566 9.98756 13.8067 10.1147C13.6568 10.2436 12.5501 10.6893 12.2381 10.7814C12.0063 10.8496 11.6212 10.6433 11.4399 10.5346C11.3772 10.4978 11.2482 10.437 11.2029 10.4223C10.4726 10.1791 9.67268 10.2067 9.04177 10.321C8.94242 10.3394 8.58688 10.4444 8.37948 10.5199C7.97514 10.6691 7.339 10.9067 6.92769 11.0559C6.92769 11.0559 7.1194 10.9325 7.41917 10.7409C7.72417 10.5457 7.51154 10.588 7.45577 10.577C7.24315 10.5346 7.00089 10.4536 6.64883 10.3486C5.81924 10.0981 4.63759 10.3983 4.63759 10.3983V10.3965C3.96659 10.6009 2.97317 10.9085 2.56534 11.0559C2.56534 11.0559 3.95788 10.5586 4.72822 9.95809C4.77876 9.91756 4.92864 9.74258 4.98964 9.64127C5.25978 9.18447 5.89592 8.11061 6.02315 7.94483C6.17827 7.74406 6.91026 6.51179 7.4244 5.72159C7.9368 4.92955 8.62871 4.43591 8.62871 4.43591C8.67751 4.47643 8.76988 4.46354 8.76988 4.46354C8.76988 4.46354 8.81345 4.4967 9.09057 4.59432C9.36768 4.69194 9.62388 4.62747 9.68662 4.598C9.74936 4.56853 9.86788 4.48749 10.0125 4.598C10.1572 4.70852 10.4761 4.73247 10.4761 4.73247C10.6086 4.97929 10.7968 4.77851 10.7968 4.77851C10.9903 4.84298 11.0356 4.7472 11.1262 4.67721C11.2151 4.60721 11.2534 4.4967 11.2534 4.4967C11.2534 4.4967 11.5096 4.47643 11.5811 4.35855C11.6526 4.24251 11.616 3.99016 11.616 3.99016C11.616 3.99016 11.7118 3.92016 11.7345 3.81149C11.7571 3.70097 11.6508 3.34547 11.5637 3.08944C11.4765 2.83341 11.4661 2.72658 11.4539 2.47423C11.4434 2.22188 11.1506 2.00453 11.1506 2.00453C10.9554 1.80376 10.7463 1.83139 10.5232 1.8977C10.3001 1.96217 9.27008 2.36003 8.26271 2.75052C7.25535 3.14102 5.8419 4.57037 5.27199 5.04191C4.70382 5.51345 3.15791 7.03306 2.98885 7.25962C2.8198 7.48803 1.42726 9.60812 0.866065 10.3062C0.304868 11.0043 0.390267 11.7853 0.620323 12.2071C0.850379 12.6289 1.89609 13.1005 3.54134 14.003C5.18659 14.9037 6.84578 14.8079 7.93854 15.0032C9.02957 15.1984 9.14459 16.1489 9.28402 16.6352C9.42171 17.1233 9.86788 18.2119 10.0997 18.6337C10.3297 19.0555 10.6539 20.308 10.7759 20.7943C10.8996 21.2824 11.0652 22.7633 11.1262 23.0746C11.1872 23.3859 11.2378 24.0103 11.1698 24.3327C11.1001 24.655 11.1384 26.0715 11.1384 26.0715L16.3896 26.2815L21.6408 26.0715C21.6408 26.0715 21.6792 24.6569 21.6094 24.3327C21.5397 24.0103 21.592 23.3859 21.653 23.0746C21.714 22.7633 21.8796 21.2824 22.0033 20.7943C22.1271 20.3062 22.4495 19.0555 22.6796 18.6337C22.9096 18.2119 23.3558 17.1233 23.4952 16.6352C23.6329 16.147 23.7497 15.1966 24.8407 15.0032C25.9317 14.8079 27.5926 14.9056 29.2379 14.003C30.8831 13.1005 31.9288 12.6308 32.1589 12.2071C32.3872 11.7853 32.4709 11.0043 31.9097 10.3062Z" fill="#F8E11E"/>
<path d="M24.5676 22.0519C25.0782 22.3466 25.3606 22.6745 25.3623 23.0208C25.3641 24.323 21.3468 25.3895 16.3902 25.4024C11.4335 25.4153 7.41448 24.3709 7.41274 23.0668C7.41274 22.6782 7.77003 22.3116 8.40268 21.9856C6.67377 22.5419 5.62109 23.2786 5.62109 24.0873C5.62109 25.8169 10.4418 27.2204 16.3867 27.2204C22.3333 27.2204 27.154 25.8187 27.154 24.0873C27.154 23.3118 26.1797 22.6008 24.5676 22.0519Z" fill="#F8E11E"/>
</g>
<defs>
<clipPath id="clip0_1007_2010">
<rect width="31.8889" height="27.2222" fill="white" transform="translate(0.443359 0.000488281)"/>
</clipPath>
</defs>
</svg>
