<svg width="41" height="35" viewBox="0 0 41 35" fill="none" xmlns="http://www.w3.org/2000/svg">
<g clip-path="url(#clip0_1007_1934)">
<path d="M40.4567 13.2507C39.7351 12.3532 37.9447 9.62732 37.7274 9.33366C37.51 9.04237 35.5247 7.08859 34.7919 6.48232C34.0614 5.87606 32.2419 4.03831 30.9467 3.53625C29.6515 3.03418 28.3272 2.52265 28.0404 2.43976C27.7536 2.35687 27.4847 2.31898 27.2337 2.57712C27.2337 2.57712 26.8595 2.85657 26.8438 3.18102C26.8304 3.50546 26.8147 3.64282 26.7026 3.972C26.5906 4.30119 26.4539 4.75825 26.4853 4.90035C26.5144 5.04244 26.6376 5.13006 26.6376 5.13006C26.6376 5.13006 26.5883 5.45451 26.6825 5.60371C26.7743 5.75291 27.106 5.78133 27.106 5.78133C27.106 5.78133 27.153 5.92342 27.2696 6.01341C27.3838 6.1034 27.4443 6.22418 27.6908 6.14366C27.6908 6.14366 27.9328 6.4018 28.1031 6.08446C28.1031 6.08446 28.5154 6.05367 28.6992 5.91158C28.8852 5.76948 29.0353 5.87369 29.1182 5.91158C29.1989 5.94947 29.5283 6.03236 29.8846 5.90684C30.2409 5.78133 30.2969 5.7387 30.2969 5.7387C30.2969 5.7387 30.4156 5.75528 30.4784 5.70317C30.4784 5.70317 31.368 6.33786 32.0268 7.3562C32.6878 8.37453 33.6267 9.95651 33.8284 10.2146C33.9875 10.4207 34.7762 11.7516 35.1348 12.3579C35.202 12.4716 35.5135 12.8055 35.6188 12.8836C36.6249 13.6178 38.2921 14.2146 38.2921 14.2146C37.7632 14.0228 36.4681 13.6225 35.6053 13.3596C35.6076 13.3644 35.6098 13.3691 35.6098 13.3691C35.6098 13.3691 34.0906 12.9855 33.0239 13.3052C32.6811 13.4094 32.4212 13.5136 32.1904 13.5515C31.9797 13.587 31.7893 13.6486 31.9125 13.7101C31.9282 13.7196 31.9439 13.7315 31.9596 13.7433C32.3898 14.0464 32.6878 14.2146 32.6878 14.2146C31.9461 13.9446 30.6308 13.4544 30.3775 13.3596C29.5731 13.1583 28.4191 13.0423 27.3547 13.3454C27.2337 13.3786 26.8572 13.5586 26.6645 13.6604C26.4113 13.793 26.0685 13.9304 25.8399 13.8641C25.4388 13.7457 24.0159 13.1726 23.8232 13.0068C23.6305 12.841 23.3706 12.3366 23.5274 11.78C23.6843 11.2235 23.8097 10.4917 23.942 10.2407C24.0764 9.98966 24.2691 9.4426 24.2691 9.4426C24.2691 9.4426 24.3722 9.70074 24.6388 9.66048C24.9055 9.62259 25.1049 9.41892 25.1722 9.14421C25.2394 8.86949 25.3716 8.38401 25.3873 8.18034C25.403 7.97667 25.4904 6.99859 25.4478 6.79493C25.403 6.59126 25.1139 6.32365 24.8853 6.52021V6.32839L24.9817 6.25497L24.9414 6.11761C24.9414 6.11761 24.9996 6.07025 25.0041 6.05841C25.0086 6.04657 25.0377 6.05841 25.0041 5.99683C24.9705 5.93526 24.957 5.89974 24.9526 5.87606C24.9503 5.85237 24.9503 5.84053 24.9795 5.78606C25.0086 5.73159 25.0422 5.72686 25.0534 5.67239C25.0646 5.61792 25.078 5.58713 25.0713 5.53977C25.0646 5.4924 25.0601 5.50188 25.0534 5.40951C25.0467 5.31952 25.0579 5.27216 25.0534 5.22953C25.0489 5.1869 25.087 4.94297 25.087 4.92876C25.087 4.91219 25.1027 4.91692 25.0982 4.86719C25.0937 4.81509 25.0512 4.73457 25.0758 4.72273C25.1027 4.71089 25.2237 4.68484 25.2237 4.68484L25.143 4.48828C25.143 4.48828 25.1901 4.44565 25.199 4.39355C25.2058 4.34381 25.2394 4.3746 25.2103 4.31066C25.1811 4.24908 25.1766 4.23961 25.1744 4.18988C25.1699 4.13778 25.1677 4.17804 25.1699 4.07147C25.1744 3.9649 25.1789 3.97674 25.1699 3.90332C25.1632 3.82991 25.1677 3.83701 25.152 3.74702C25.1363 3.65703 25.1475 3.62861 25.1229 3.5694C25.096 3.5102 25.1005 3.52204 25.0758 3.47467C25.0489 3.42731 25.031 3.39652 25.0243 3.37284C25.0153 3.34916 25.0153 3.34916 25.0153 3.34916L24.9302 3.17154L25.0198 3.09339L24.8428 2.93235H24.975L24.8271 2.81394H24.957L24.7867 2.705L24.8316 2.62211C24.8316 2.62211 24.724 2.43502 24.5985 2.26925C24.473 2.10584 24.3901 1.98743 24.3901 1.98743H24.482C24.482 1.98743 24.3341 1.7885 24.2938 1.7435C24.2534 1.70087 24.1795 1.62983 24.1795 1.62983H24.3386C24.3386 1.62983 24.11 1.51142 24.0607 1.45221C24.0137 1.393 23.7985 1.09934 23.5946 0.997511C23.3907 0.895677 23.2988 0.883836 23.1622 0.789107C23.0255 0.694378 22.7835 0.578335 22.6804 0.512025C22.5773 0.445715 22.3375 0.272834 22.1381 0.234943C21.9387 0.197051 21.9432 0.152055 21.8378 0.149686C21.7258 0.147318 21.5577 0.161528 21.5129 0.126004C21.4681 0.0904808 21.3897 0.0857444 21.3516 0.0667986C21.3135 0.0478528 21.2732 0.0667986 21.2216 0.0478528C21.1701 0.0265388 21.0536 0.0549575 21.011 0.0525892C20.9662 0.050221 20.8116 0.0194341 20.8116 0.0194341C20.8116 0.0194341 20.6883 0.0146976 20.6233 0.0123294C20.5606 0.00522473 20.5001 0.000488281 20.5001 0.000488281C20.5001 0.000488281 20.4418 0.00522473 20.3768 0.00759296C20.3119 0.00996118 20.1886 0.0146976 20.1886 0.0146976C20.1886 0.0146976 20.034 0.0478528 19.9892 0.050221C19.9444 0.0525892 19.8368 0.0265388 19.7853 0.0454846C19.7337 0.0667986 19.6844 0.0478528 19.6486 0.0644304C19.6127 0.0833762 19.5321 0.0881126 19.4872 0.123636C19.4424 0.159159 19.2744 0.14495 19.1713 0.147318C19.0682 0.149686 19.0727 0.194683 18.8733 0.232574C18.6738 0.270466 18.4341 0.443346 18.331 0.509657C18.2279 0.575967 17.9859 0.694378 17.8492 0.786739C17.7125 0.881468 17.6184 0.893309 17.4145 0.995143C17.2106 1.09698 16.9955 1.39064 16.9484 1.44984C16.9014 1.50905 16.6705 1.62746 16.6705 1.62746H16.8296C16.8296 1.62746 16.7557 1.69851 16.7154 1.74113C16.675 1.78376 16.5271 1.98506 16.5271 1.98506H16.619C16.619 1.98506 16.5383 2.10347 16.4106 2.26688C16.2851 2.43266 16.1776 2.61975 16.1776 2.61975L16.2224 2.70263L16.0521 2.81157H16.1821L16.0342 2.92998H16.1686L15.9916 3.09102L16.0812 3.16917L15.9961 3.34679C15.9961 3.34679 15.9961 3.34679 15.9893 3.37047C15.9826 3.39416 15.9625 3.42494 15.9378 3.47231C15.9109 3.51967 15.9154 3.50783 15.8885 3.56704C15.8616 3.62624 15.8728 3.65229 15.8594 3.74465C15.8437 3.83465 15.8482 3.82754 15.8415 3.90096C15.8347 3.97437 15.837 3.96253 15.8415 4.0691C15.8459 4.17567 15.8414 4.13541 15.837 4.18751C15.8325 4.23724 15.8302 4.24672 15.7989 4.30829C15.7697 4.37223 15.8034 4.33908 15.8101 4.39118C15.8168 4.44091 15.8661 4.48591 15.8661 4.48591L15.7854 4.68247C15.7854 4.68247 15.9087 4.70852 15.9333 4.72036C15.9602 4.7322 15.9154 4.81509 15.9109 4.86482C15.9064 4.91456 15.9221 4.91219 15.9221 4.9264C15.9221 4.94061 15.9602 5.18453 15.9557 5.22716C15.9512 5.26979 15.9625 5.31715 15.9557 5.40715C15.949 5.49714 15.9445 5.49003 15.9378 5.5374C15.9311 5.58476 15.9445 5.61555 15.9557 5.67002C15.9669 5.72449 16.0005 5.72923 16.0297 5.78369C16.0588 5.83816 16.0588 5.85 16.0543 5.87369C16.0498 5.89737 16.0364 5.93289 16.0028 5.99447C15.9692 6.05604 16.0005 6.0442 16.0028 6.05604C16.0073 6.06788 16.0655 6.11525 16.0655 6.11525L16.0252 6.2526L16.1216 6.32602V6.51784C15.8907 6.32128 15.6017 6.58889 15.5591 6.79256C15.5143 6.99623 15.6039 7.9743 15.6174 8.17797C15.6331 8.38164 15.7653 8.86712 15.8325 9.14184C15.8997 9.41655 16.0991 9.62022 16.3658 9.65811C16.6325 9.69837 16.7355 9.44023 16.7355 9.44023C16.7355 9.44023 16.9282 9.98729 17.0627 10.2383C17.1971 10.4894 17.3226 11.2211 17.4772 11.7777C17.6319 12.3342 17.3742 12.841 17.1814 13.0044C16.9887 13.1702 15.5658 13.7433 15.1647 13.8617C14.8667 13.9493 14.3715 13.6841 14.1384 13.5444C14.0578 13.497 13.892 13.4189 13.8337 13.3999C12.8948 13.0873 11.8663 13.1228 11.0551 13.2697C10.9274 13.2933 10.4702 13.4283 10.2036 13.5254C9.68372 13.7172 8.86583 14.0228 8.337 14.2146C8.337 14.2146 8.58348 14.0559 8.9689 13.8096C9.36104 13.5586 9.08767 13.613 9.01596 13.5988C8.74258 13.5444 8.43111 13.4402 7.97847 13.3052C6.91184 12.9831 5.39258 13.3691 5.39258 13.3691V13.3668C4.52987 13.6296 3.25261 14.0251 2.72826 14.2146C2.72826 14.2146 4.51867 13.5752 5.5091 12.8031C5.57408 12.751 5.76679 12.526 5.84522 12.3958C6.19255 11.8085 7.01044 10.4278 7.17402 10.2146C7.37345 9.95651 8.31459 8.37216 8.97563 7.3562C9.63442 6.33786 10.524 5.70317 10.524 5.70317C10.5868 5.75528 10.7055 5.7387 10.7055 5.7387C10.7055 5.7387 10.7615 5.78133 11.1178 5.90684C11.4741 6.03236 11.8035 5.94947 11.8842 5.91158C11.9649 5.87369 12.1172 5.76948 12.3032 5.91158C12.4892 6.05367 12.8993 6.08446 12.8993 6.08446C13.0696 6.4018 13.3116 6.14366 13.3116 6.14366C13.5603 6.22655 13.6186 6.1034 13.7351 6.01341C13.8494 5.92342 13.8987 5.78133 13.8987 5.78133C13.8987 5.78133 14.2281 5.75528 14.3199 5.60371C14.4118 5.45451 14.3648 5.13006 14.3648 5.13006C14.3648 5.13006 14.488 5.04007 14.5171 4.90035C14.5463 4.75825 14.4096 4.30119 14.2975 3.972C14.1855 3.64282 14.1721 3.50546 14.1564 3.18102C14.1429 2.85657 13.7665 2.57712 13.7665 2.57712C13.5155 2.31898 13.2466 2.3545 12.9598 2.43976C12.673 2.52265 11.3486 3.03418 10.0535 3.53625C8.75827 4.03831 6.94098 5.87606 6.20823 6.48232C5.47773 7.08859 3.49014 9.04237 3.27278 9.33366C3.05542 9.62732 1.26502 12.3532 0.543478 13.2507C-0.178061 14.1483 -0.0682613 15.1524 0.227525 15.6947C0.523311 16.237 1.86779 16.8433 3.98311 18.0037C6.09843 19.1618 8.23168 19.0387 9.63666 19.2897C11.0394 19.5407 11.1873 20.7627 11.3666 21.3879C11.5436 22.0155 12.1172 23.4151 12.4153 23.9575C12.711 24.4998 13.1278 26.1102 13.2847 26.7354C13.4438 27.363 13.6567 29.267 13.7351 29.6672C13.8135 30.0675 13.8785 30.8703 13.7911 31.2847C13.7015 31.6992 13.7508 33.5203 13.7508 33.5203L20.5023 33.7903L27.2539 33.5203C27.2539 33.5203 27.3032 31.7016 27.2135 31.2847C27.1239 30.8703 27.1911 30.0675 27.2696 29.6672C27.348 29.267 27.5609 27.363 27.72 26.7354C27.8791 26.1078 28.2936 24.4998 28.5894 23.9575C28.8852 23.4151 29.4588 22.0155 29.6381 21.3879C29.8151 20.7604 29.9652 19.5383 31.368 19.2897C32.7707 19.0387 34.9062 19.1642 37.0215 18.0037C39.1369 16.8433 40.4813 16.2394 40.7771 15.6947C41.0707 15.1524 41.1782 14.1483 40.4567 13.2507Z" fill="#F8E11E"/>
<path d="M31.018 28.3523C31.6745 28.7313 32.0376 29.1528 32.0398 29.598C32.042 31.2724 26.877 32.6436 20.5041 32.6601C14.1313 32.6767 8.96399 31.3339 8.96175 29.6572C8.96175 29.1575 9.42111 28.6863 10.2345 28.2671C8.01165 28.9823 6.6582 29.9296 6.6582 30.9692C6.6582 33.193 12.8563 34.9976 20.4997 34.9976C28.1453 34.9976 34.3433 33.1954 34.3433 30.9692C34.3433 29.9722 33.0907 29.0581 31.018 28.3523Z" fill="#F8E11E"/>
</g>
<defs>
<clipPath id="clip0_1007_1934">
<rect width="41" height="35" fill="white" transform="translate(0 0.000488281)"/>
</clipPath>
</defs>
</svg>
