<svg width="36" height="36" viewBox="0 0 36 36" fill="none" xmlns="http://www.w3.org/2000/svg">
<g clip-path="url(#clip0_1007_2319)">
<path d="M31.1761 18.2463L33.218 16.2044C36.9272 12.4952 36.9276 6.49158 33.218 2.78203C29.509 -0.927097 23.5053 -0.927589 19.7957 2.78203C19.004 3.57361 3.50016 19.0776 2.78205 19.7957C-0.927141 23.5049 -0.927563 29.5085 2.78205 33.2181C6.49111 36.9272 12.4948 36.9277 16.2044 33.2181L18.2464 31.1761C19.8787 34.0527 22.9698 35.9979 26.5068 35.9979C31.7402 35.9979 35.9979 31.7402 35.9979 26.5069C35.9979 22.9697 34.0527 19.8787 31.1761 18.2463ZM17.0158 26.5068C17.0158 27.3952 17.1388 28.2554 17.3681 29.0716L14.713 31.7267C11.8282 34.6114 7.15866 34.6119 4.27345 31.7267C1.3886 28.8419 1.38818 24.1723 4.27345 21.2871L11.9702 13.5903L19.0375 20.6575C17.7715 22.2705 17.0158 24.3021 17.0158 26.5068ZM25.4522 33.8131C21.8796 33.2998 19.1249 30.2192 19.1249 26.5068C19.1249 22.7944 21.8796 19.7138 25.4522 19.2005V33.8131ZM20.5148 19.1522L13.4615 12.0989L21.287 4.27343C24.1719 1.38865 28.8414 1.38822 31.7266 4.27343C34.6115 7.15821 34.6119 11.8278 31.7266 14.713L29.0715 17.3681C28.2554 17.1387 27.3952 17.0157 26.5068 17.0157C24.2364 17.0157 22.15 17.8175 20.5148 19.1522ZM27.5614 33.8131V19.2006C31.134 19.7138 33.8887 22.7944 33.8887 26.5069C33.8887 30.2192 31.134 33.2998 27.5614 33.8131Z" fill="#F8E11E"/>
</g>
<defs>
<clipPath id="clip0_1007_2319">
<rect width="36" height="36" fill="white"/>
</clipPath>
</defs>
</svg>
