<svg width="38" height="38" viewBox="0 0 38 38" fill="none" xmlns="http://www.w3.org/2000/svg">
<path d="M36.4672 13.4066L35.2797 12.2191L25.7797 2.71914L24.5922 1.53164C24.3651 1.33709 24.0729 1.23544 23.774 1.24698C23.4751 1.25852 23.1916 1.38242 22.9801 1.59391C22.7687 1.80539 22.6448 2.0889 22.6332 2.38776C22.6217 2.68663 22.7233 2.97884 22.9179 3.20601L23.2622 3.55039L8.65599 18.1566L3.90599 22.9066C2.52747 24.4088 1.78232 26.3853 1.82604 28.4236C1.86976 30.462 2.69898 32.4047 4.14064 33.8464C5.5823 35.288 7.52502 36.1172 9.56337 36.161C11.6017 36.2047 13.5782 35.4595 15.0804 34.081L29.3304 19.831L34.4366 14.7366L34.781 15.081C35.0082 15.2756 35.3004 15.3772 35.5992 15.3657C35.8981 15.3541 36.1816 15.2302 36.3931 15.0187C36.6046 14.8073 36.7285 14.5238 36.74 14.2249C36.7516 13.926 36.6499 13.6338 36.4554 13.4066H36.4672ZM5.59224 32.4066C4.55455 31.3689 3.97159 29.9614 3.97159 28.4938C3.97159 27.0263 4.55455 25.6188 5.59224 24.581L9.98599 20.1873H25.6372L21.6235 24.201L20.0322 22.5623C19.8051 22.3677 19.5129 22.2661 19.214 22.2776C18.9151 22.2891 18.6316 22.413 18.4201 22.6245C18.2087 22.836 18.0848 23.1195 18.0732 23.4184C18.0617 23.7173 18.1633 24.0095 18.3579 24.2366L19.9372 25.816L15.1041 30.6491L13.3822 28.9748C13.1551 28.7802 12.8629 28.6786 12.564 28.6901C12.2651 28.7016 11.9816 28.8255 11.7701 29.037C11.5587 29.2485 11.4348 29.532 11.4232 29.8309C11.4117 30.1298 11.5133 30.422 11.7079 30.6491L13.4416 32.3829C12.9289 32.9018 12.3186 33.3143 11.6459 33.5965C10.9732 33.8787 10.2514 34.0251 9.52187 34.0273C8.79237 34.0295 8.06963 33.8875 7.39523 33.6094C6.72084 33.3312 6.10809 32.9225 5.59224 32.4066ZM29.5916 16.2329L28.0122 14.6535C27.7851 14.459 27.4929 14.3573 27.194 14.3689C26.8951 14.3804 26.6116 14.5043 26.4001 14.7158C26.1887 14.9273 26.0648 15.2108 26.0532 15.5096C26.0417 15.8085 26.1433 16.1007 26.3379 16.3279L27.8104 17.8123H12.3729L24.9366 5.23664L32.7622 13.0623L29.5916 16.2329Z" fill="#F8E11E"/>
</svg>
