<svg width="38" height="38" viewBox="0 0 38 38" fill="none" xmlns="http://www.w3.org/2000/svg">
<path d="M11.7405 8.48853C10.0012 6.93523 8.94978 4.69317 8.9418 2.26332C8.94055 1.88098 9.13481 1.52454 9.45681 1.31838C10.7941 0.462251 12.3498 0 13.9712 0C16.3497 0 18.558 0.999317 20.1182 2.68259C21.6566 1.02589 23.8521 0 26.2653 0C27.8483 0 29.3692 0.440633 30.6858 1.25921C31.0649 1.49486 31.2673 1.93342 31.2009 2.37477C30.7803 5.16848 28.9964 7.48056 26.5754 8.65831C31.3891 11.3266 34.6476 16.4592 34.6476 22.3529C34.6476 30.9946 27.6422 38 19.0006 38C10.3589 38 3.35352 30.9946 3.35352 22.3529C3.35352 16.3317 6.75462 11.1048 11.7405 8.48853ZM19.5648 8.95283C19.3777 8.94509 19.1896 8.94118 19.0006 8.94118C11.5935 8.94118 5.58881 14.9458 5.58881 22.3529C5.58881 29.7601 11.5935 35.7647 19.0006 35.7647C26.4077 35.7647 32.4123 29.7601 32.4123 22.3529C32.4123 18.8905 31.1003 15.7346 28.9463 13.3551C28.8938 13.3155 28.844 13.2707 28.7977 13.2207C27.3134 11.6159 25.1085 10.6176 22.9123 10.6176C18.5915 10.6176 15.0888 14.1204 15.0888 18.4412C15.0888 19.0584 14.5884 19.5588 13.9712 19.5588C13.3539 19.5588 12.8535 19.0584 12.8535 18.4412C12.8535 14.0595 15.6551 10.3322 19.5648 8.95283ZM18.7966 4.57334C17.6453 3.11531 15.8843 2.23529 13.9712 2.23529C12.9967 2.23529 12.0576 2.4617 11.2114 2.88778C11.4139 4.79836 12.4971 6.49045 14.1197 7.48248C15.3833 7.06793 16.6999 6.81574 18.045 6.73462C18.1957 5.97961 18.4492 5.25332 18.7966 4.57334ZM22.9123 7.26471C25.7015 7.26471 28.095 5.39488 28.8288 2.79331C28.0344 2.42822 27.1649 2.23529 26.2653 2.23529C23.4762 2.23529 21.0826 4.10512 20.3489 6.70669C21.1432 7.07178 22.0127 7.26471 22.9123 7.26471Z" fill="#F8E11E"/>
</svg>
