<svg width="38" height="38" viewBox="0 0 38 38" fill="none" xmlns="http://www.w3.org/2000/svg">
<mask id="mask0_1007_2299" style="mask-type:luminance" maskUnits="userSpaceOnUse" x="0" y="0" width="38" height="38">
<path d="M0.667969 0.00012207H38.0004V37.3325H0.667969V0.00012207Z" fill="white"/>
</mask>
<g mask="url(#mask0_1007_2299)">
<path d="M24.8191 26.5221C24.8191 29.5517 22.363 32.0078 19.3334 32.0078C16.3037 32.0078 13.8477 29.5517 13.8477 26.5221C13.8477 23.4924 16.3037 21.0363 19.3334 21.0363C22.363 21.0363 24.8191 23.4924 24.8191 26.5221Z" stroke="#F8E11E" stroke-width="2" stroke-miterlimit="10"/>
<path d="M13.1078 14.4509L12.4962 8.48789C12.3505 7.0678 13.4649 5.83328 14.8925 5.83328H23.7738C25.2013 5.83328 26.3157 7.0678 26.1701 8.48789L25.5585 14.4509C23.6937 13.4872 21.577 12.9425 19.3331 12.9425C17.0892 12.9425 14.9726 13.4872 13.1078 14.4509ZM29.8833 17.9733L30.7283 6.98956C30.9729 3.80931 28.4583 1.09389 25.2686 1.09389H13.3976C10.2079 1.09389 7.69337 3.80931 7.938 6.98956L8.78294 17.9733C6.88919 20.3075 5.75391 23.2818 5.75391 26.5218C5.75391 30.3308 7.32282 33.7729 9.84895 36.2388H28.8173C31.3434 33.7729 32.9124 30.3308 32.9124 26.5218C32.9124 23.2818 31.7771 20.3075 29.8833 17.9733Z" stroke="#F8E11E" stroke-width="2" stroke-miterlimit="10"/>
</g>
</svg>
