<svg width="193" height="31" viewBox="0 0 193 31" fill="none" xmlns="http://www.w3.org/2000/svg">
<path d="M49.08 6.6H63.128L66.552 10.056V17.896L63.096 21.384H53.432V29H49.08V6.6ZM61.144 17.736L62.264 16.616V11.368L61.144 10.248H53.432V17.736H61.144ZM72.3275 25.16V6.6H76.6795V23.656L78.3115 25.288H84.5835L86.2155 23.656V6.6H90.5675V25.16L86.7275 29H76.1675L72.3275 25.16ZM114.894 21.576V29H110.542V22.568L108.622 20.424H101.646V29H97.2937V6.6H111.342L114.766 10.056V16.84L112.59 19.048L114.894 21.576ZM101.646 16.84H109.358L110.478 15.72V11.368L109.358 10.248H101.646V16.84ZM121.448 6.6H137.64V10.28H125.8V15.944H136.712V19.56H125.8V25.32H137.64V29H121.448V6.6ZM143.414 6.6H159.286V10.28H147.766V16.488H157.75V20.168H147.766V29H143.414V6.6ZM164.571 6.6H168.923V29H164.571V6.6ZM180.903 10.28H174.215V6.6H191.943V10.28H185.255V29H180.903V10.28Z" fill="#DDDDDD"/>
<g clip-path="url(#clip0_1007_2621)">
<path d="M36.5097 11.7359C35.8585 10.9409 34.2428 8.52663 34.0467 8.26653C33.8505 8.00853 32.0589 6.27803 31.3976 5.74105C30.7384 5.20407 29.0963 3.57636 27.9275 3.13167C26.7587 2.68699 25.5636 2.23391 25.3047 2.1605C25.0459 2.08708 24.8032 2.05352 24.5768 2.28216C24.5768 2.28216 24.239 2.52967 24.2249 2.81704C24.2128 3.10441 24.1986 3.22606 24.0975 3.51763C23.9964 3.80919 23.873 4.21402 23.9013 4.33987C23.9276 4.46573 24.0389 4.54334 24.0389 4.54334C24.0389 4.54334 23.9944 4.83071 24.0793 4.96285C24.1622 5.095 24.4615 5.12017 24.4615 5.12017C24.4615 5.12017 24.504 5.24603 24.6091 5.32573C24.7122 5.40544 24.7668 5.51242 24.9893 5.4411C24.9893 5.4411 25.2077 5.66973 25.3614 5.38866C25.3614 5.38866 25.7334 5.36139 25.8993 5.23554C26.0671 5.10968 26.2026 5.20198 26.2774 5.23554C26.3502 5.2691 26.6475 5.34251 26.969 5.23134C27.2905 5.12017 27.3411 5.08241 27.3411 5.08241C27.3411 5.08241 27.4483 5.0971 27.5049 5.05095C27.5049 5.05095 28.3077 5.6131 28.9022 6.51506C29.4988 7.41701 30.3461 8.81819 30.5281 9.04682C30.6716 9.22931 31.3834 10.4081 31.707 10.9451C31.7677 11.0458 32.0487 11.3416 32.1438 11.4108C33.0517 12.061 34.5563 12.5896 34.5563 12.5896C34.079 12.4197 32.9102 12.0652 32.1317 11.8324C32.1337 11.8366 32.1357 11.8408 32.1357 11.8408C32.1357 11.8408 30.7647 11.501 29.8021 11.7842C29.4927 11.8764 29.2581 11.9687 29.0498 12.0023C28.8597 12.0338 28.6879 12.0883 28.7991 12.1428C28.8132 12.1512 28.8274 12.1617 28.8415 12.1722C29.2298 12.4407 29.4988 12.5896 29.4988 12.5896C28.8294 12.3505 27.6424 11.9163 27.4139 11.8324C26.6879 11.6541 25.6465 11.5513 24.686 11.8198C24.5768 11.8492 24.237 12.0086 24.0631 12.0988C23.8346 12.2163 23.5252 12.3379 23.319 12.2792C22.957 12.1743 21.6729 11.6667 21.499 11.5199C21.3251 11.373 21.0905 10.9262 21.2321 10.4333C21.3736 9.94039 21.4868 9.29224 21.6062 9.0699C21.7275 8.84756 21.9014 8.36302 21.9014 8.36302C21.9014 8.36302 21.9944 8.59165 22.2351 8.55599C22.4757 8.52243 22.6557 8.34204 22.7163 8.09872C22.777 7.8554 22.8963 7.4254 22.9105 7.24501C22.9246 7.06462 23.0035 6.19832 22.9651 6.01793C22.9246 5.83754 22.6638 5.60051 22.4575 5.77461V5.60471L22.5445 5.53969L22.5081 5.41803C22.5081 5.41803 22.5606 5.37607 22.5647 5.36559C22.5687 5.3551 22.595 5.36559 22.5647 5.31105C22.5343 5.25651 22.5222 5.22505 22.5182 5.20407C22.5161 5.1831 22.5161 5.17261 22.5424 5.12437C22.5687 5.07612 22.5991 5.07193 22.6092 5.02368C22.6193 4.97544 22.6314 4.94817 22.6253 4.90622C22.6193 4.86427 22.6152 4.87266 22.6092 4.79085C22.6031 4.71114 22.6132 4.66919 22.6092 4.63144C22.6051 4.59368 22.6395 4.37763 22.6395 4.36505C22.6395 4.35036 22.6537 4.35456 22.6496 4.31051C22.6456 4.26436 22.6071 4.19304 22.6294 4.18256C22.6537 4.17207 22.7628 4.149 22.7628 4.149L22.6901 3.9749C22.6901 3.9749 22.7325 3.93714 22.7406 3.89099C22.7467 3.84695 22.777 3.87421 22.7507 3.81758C22.7244 3.76304 22.7204 3.75465 22.7184 3.7106C22.7143 3.66446 22.7123 3.70012 22.7143 3.60572C22.7184 3.51133 22.7224 3.52182 22.7143 3.4568C22.7083 3.39177 22.7123 3.39807 22.6981 3.31836C22.684 3.23865 22.6941 3.21348 22.6719 3.16104C22.6476 3.1086 22.6516 3.11909 22.6294 3.07714C22.6051 3.03519 22.5889 3.00792 22.5829 2.98694C22.5748 2.96597 22.5748 2.96597 22.5748 2.96597L22.4979 2.80865L22.5788 2.73943L22.4191 2.59679H22.5384L22.4049 2.49191H22.5222L22.3685 2.39543L22.409 2.32201C22.409 2.32201 22.3119 2.1563 22.1987 2.00947C22.0854 1.86474 22.0106 1.75986 22.0106 1.75986H22.0935C22.0935 1.75986 21.96 1.58367 21.9236 1.54381C21.8872 1.50606 21.8205 1.44313 21.8205 1.44313H21.9641C21.9641 1.44313 21.7578 1.33825 21.7133 1.28581C21.6709 1.23337 21.4767 0.973273 21.2927 0.883077C21.1087 0.792882 21.0258 0.782394 20.9024 0.698491C20.7791 0.614588 20.5607 0.511807 20.4677 0.453075C20.3746 0.394343 20.1583 0.241221 19.9783 0.20766C19.7983 0.174098 19.8024 0.134245 19.7073 0.132147C19.6062 0.130049 19.4545 0.142635 19.4141 0.111171C19.3737 0.0797077 19.3029 0.0755126 19.2685 0.058732C19.2341 0.0419514 19.1977 0.058732 19.1512 0.0419514C19.1047 0.0230733 18.9996 0.0482441 18.9611 0.0461466C18.9207 0.044049 18.7812 0.0167806 18.7812 0.0167806C18.7812 0.0167806 18.6699 0.0125854 18.6113 0.0104879C18.5547 0.00419514 18.5001 0 18.5001 0C18.5001 0 18.4475 0.00419514 18.3889 0.00629271C18.3302 0.00839028 18.219 0.0125854 18.219 0.0125854C18.219 0.0125854 18.0795 0.0419514 18.039 0.044049C17.9986 0.0461466 17.9015 0.0230733 17.855 0.0398538C17.8085 0.058732 17.764 0.0419514 17.7316 0.0566344C17.6993 0.073415 17.6265 0.0776101 17.586 0.109074C17.5456 0.140537 17.3939 0.127952 17.3009 0.130049C17.2079 0.132147 17.2119 0.172001 17.032 0.205562C16.852 0.239123 16.6356 0.392246 16.5426 0.450978C16.4496 0.50971 16.2312 0.614588 16.1078 0.696394C15.9845 0.780296 15.8995 0.790784 15.7155 0.88098C15.5315 0.971175 15.3374 1.23127 15.2949 1.28371C15.2524 1.33615 15.0442 1.44103 15.0442 1.44103H15.1877C15.1877 1.44103 15.121 1.50396 15.0846 1.54171C15.0482 1.57947 14.9147 1.75776 14.9147 1.75776H14.9976C14.9976 1.75776 14.9248 1.86264 14.8096 2.00738C14.6963 2.15421 14.5993 2.31991 14.5993 2.31991L14.6397 2.39333L14.486 2.48982H14.6033L14.4699 2.5947H14.5912L14.4314 2.73733L14.5123 2.80655L14.4355 2.96387C14.4355 2.96387 14.4355 2.96387 14.4294 2.98484C14.4233 3.00582 14.4051 3.03309 14.3829 3.07504C14.3586 3.11699 14.3627 3.1065 14.3384 3.15894C14.3141 3.21138 14.3243 3.23445 14.3121 3.31626C14.298 3.39597 14.302 3.38967 14.2959 3.4547C14.2899 3.51972 14.2919 3.50924 14.2959 3.60363C14.3 3.69802 14.2959 3.66236 14.2919 3.70851C14.2879 3.75255 14.2858 3.76095 14.2575 3.81548C14.2312 3.87212 14.2616 3.84275 14.2676 3.8889C14.2737 3.93295 14.3182 3.9728 14.3182 3.9728L14.2454 4.1469C14.2454 4.1469 14.3566 4.16997 14.3789 4.18046C14.4031 4.19095 14.3627 4.26436 14.3586 4.30841C14.3546 4.35246 14.3687 4.35036 14.3687 4.36295C14.3687 4.37553 14.4031 4.59158 14.3991 4.62934C14.395 4.6671 14.4051 4.70905 14.3991 4.78875C14.393 4.86846 14.389 4.86217 14.3829 4.90412C14.3768 4.94607 14.389 4.97334 14.3991 5.02158C14.4092 5.06983 14.4395 5.07402 14.4658 5.12227C14.4921 5.17051 14.4921 5.181 14.4881 5.20198C14.484 5.22295 14.4719 5.25442 14.4415 5.30895C14.4112 5.36349 14.4395 5.353 14.4415 5.36349C14.4456 5.37398 14.4982 5.41593 14.4982 5.41593L14.4618 5.53759L14.5487 5.60261V5.77252C14.3404 5.59842 14.0796 5.83544 14.0411 6.01583C14.0007 6.19623 14.0816 7.06252 14.0937 7.24291C14.1079 7.4233 14.2272 7.85331 14.2879 8.09662C14.3485 8.33994 14.5285 8.52033 14.7691 8.55389C15.0098 8.58955 15.1028 8.36092 15.1028 8.36092C15.1028 8.36092 15.2767 8.84546 15.398 9.0678C15.5194 9.29014 15.6326 9.93829 15.7721 10.4312C15.9117 10.9241 15.6791 11.373 15.5052 11.5178C15.3313 11.6646 14.0472 12.1722 13.6852 12.2771C13.4163 12.3547 12.9694 12.1198 12.7591 11.996C12.6863 11.9541 12.5366 11.8848 12.4841 11.8681C11.6368 11.5912 10.7086 11.6226 9.97655 11.7527C9.86128 11.7737 9.44875 11.8932 9.20811 11.9792C8.73897 12.1491 8.00087 12.4197 7.52363 12.5896C7.52363 12.5896 7.74607 12.4491 8.09389 12.2309C8.44777 12.0086 8.20106 12.0568 8.13635 12.0443C7.88965 11.996 7.60856 11.9037 7.20008 11.7842C6.23752 11.4989 4.86647 11.8408 4.86647 11.8408V11.8387C4.08793 12.0715 2.93528 12.4218 2.46209 12.5896C2.46209 12.5896 4.07782 12.0233 4.97163 11.3395C5.03027 11.2933 5.20418 11.0941 5.27496 10.9787C5.5884 10.4585 6.32649 9.23561 6.47411 9.04682C6.65409 8.81819 7.50341 7.41491 8.09995 6.51506C8.69448 5.6131 9.49729 5.05095 9.49729 5.05095C9.55391 5.0971 9.66109 5.08241 9.66109 5.08241C9.66109 5.08241 9.71164 5.12017 10.0332 5.23134C10.3547 5.34251 10.652 5.2691 10.7248 5.23554C10.7976 5.20198 10.9351 5.10968 11.1029 5.23554C11.2707 5.36139 11.6408 5.38866 11.6408 5.38866C11.7945 5.66973 12.0129 5.4411 12.0129 5.4411C12.2374 5.51451 12.2899 5.40544 12.3951 5.32573C12.4982 5.24603 12.5427 5.12017 12.5427 5.12017C12.5427 5.12017 12.84 5.0971 12.9229 4.96285C13.0058 4.83071 12.9633 4.54334 12.9633 4.54334C12.9633 4.54334 13.0745 4.46363 13.1008 4.33987C13.1271 4.21402 13.0038 3.80919 12.9027 3.51763C12.8015 3.22606 12.7894 3.10441 12.7753 2.81704C12.7631 2.52967 12.4234 2.28216 12.4234 2.28216C12.1969 2.05352 11.9542 2.08499 11.6954 2.1605C11.4366 2.23391 10.2415 2.68699 9.07263 3.13167C7.9038 3.57636 6.26381 5.20407 5.60255 5.74105C4.94332 6.27803 3.14964 8.00853 2.95348 8.26653C2.75733 8.52663 1.1416 10.9409 0.490456 11.7359C-0.160689 12.5309 -0.0616016 13.4203 0.205327 13.9006C0.472256 14.3809 1.68557 14.9179 3.59452 15.9457C5.50346 16.9714 7.42859 16.8624 8.6965 17.0847C9.96239 17.3071 10.0959 18.3894 10.2576 18.9432C10.4174 19.499 10.9351 20.7387 11.204 21.219C11.4709 21.6994 11.8471 23.1257 11.9886 23.6795C12.1322 24.2353 12.3243 25.9218 12.3951 26.2763C12.4659 26.6308 12.5245 27.3418 12.4456 27.7089C12.3648 28.076 12.4092 29.689 12.4092 29.689L18.5021 29.9281L24.595 29.689C24.595 29.689 24.6394 28.0781 24.5586 27.7089C24.4777 27.3418 24.5383 26.6308 24.6091 26.2763C24.6799 25.9218 24.872 24.2353 25.0156 23.6795C25.1591 23.1236 25.5332 21.6994 25.8002 21.219C26.0671 20.7387 26.5848 19.499 26.7466 18.9432C26.9063 18.3873 27.0418 17.305 28.3077 17.0847C29.5736 16.8624 31.5007 16.9735 33.4097 15.9457C35.3186 14.9179 36.5319 14.383 36.7989 13.9006C37.0638 13.4203 37.1608 12.5309 36.5097 11.7359Z" fill="#F8E11E"/>
<path d="M27.993 25.1116C28.5855 25.4473 28.9131 25.8206 28.9151 26.215C28.9171 27.698 24.256 28.9124 18.5049 28.9271C12.7538 28.9418 8.0906 27.7525 8.08858 26.2674C8.08858 25.8248 8.50312 25.4074 9.23718 25.0361C7.23117 25.6696 6.00977 26.5086 6.00977 27.4295C6.00977 29.3991 11.6031 30.9974 18.5008 30.9974C25.4005 30.9974 30.9939 29.4012 30.9939 27.4295C30.9939 26.5464 29.8635 25.7367 27.993 25.1116Z" fill="#F8E11E"/>
</g>
<defs>
<clipPath id="clip0_1007_2621">
<rect width="37" height="31" fill="white"/>
</clipPath>
</defs>
</svg>
