<svg width="172" height="26" viewBox="0 0 172 26" fill="none" xmlns="http://www.w3.org/2000/svg">
<path d="M39.82 3.4H52.112L55.108 6.424V13.284L52.084 16.336H43.628V23H39.82V3.4ZM50.376 13.144L51.356 12.164V7.572L50.376 6.592H43.628V13.144H50.376ZM60.1616 19.64V3.4H63.9696V18.324L65.3976 19.752H70.8856L72.3136 18.324V3.4H76.1216V19.64L72.7616 23H63.5216L60.1616 19.64ZM97.407 16.504V23H93.599V17.372L91.919 15.496H85.815V23H82.007V3.4H94.299L97.295 6.424V12.36L95.391 14.292L97.407 16.504ZM85.815 12.36H92.563L93.543 11.38V7.572L92.563 6.592H85.815V12.36ZM103.142 3.4H117.31V6.62H106.95V11.576H116.498V14.74H106.95V19.78H117.31V23H103.142V3.4ZM122.362 3.4H136.25V6.62H126.17V12.052H134.906V15.272H126.17V23H122.362V3.4ZM140.875 3.4H144.683V23H140.875V3.4ZM155.165 6.62H149.313V3.4H164.825V6.62H158.973V23H155.165V6.62Z" fill="white"/>
<path d="M165.652 21.796V20.004L166.856 18.8H168.9L170.076 20.032V21.768L168.9 23H166.856L165.652 21.796Z" fill="#FF4D24"/>
<g clip-path="url(#clip0_910_14944)">
<path d="M31.5759 9.84302C31.0128 9.17627 29.6154 7.15136 29.4458 6.93322C29.2761 6.71683 27.7266 5.26545 27.1547 4.81508C26.5845 4.36471 25.1644 2.99953 24.1535 2.62657C23.1427 2.2536 22.109 1.8736 21.8852 1.81203C21.6613 1.75046 21.4515 1.72231 21.2556 1.91407C21.2556 1.91407 20.9635 2.12166 20.9513 2.36268C20.9408 2.60369 20.9285 2.70573 20.8411 2.95027C20.7536 3.1948 20.6469 3.53434 20.6714 3.6399C20.6942 3.74545 20.7904 3.81054 20.7904 3.81054C20.7904 3.81054 20.7519 4.05156 20.8253 4.16239C20.897 4.27323 21.1559 4.29434 21.1559 4.29434C21.1559 4.29434 21.1926 4.39989 21.2836 4.46674C21.3727 4.5336 21.42 4.62332 21.6124 4.5635C21.6124 4.5635 21.8012 4.75526 21.9342 4.51952C21.9342 4.51952 22.256 4.49665 22.3994 4.3911C22.5445 4.28554 22.6617 4.36295 22.7264 4.3911C22.7894 4.41924 23.0465 4.48082 23.3245 4.38758C23.6026 4.29434 23.6463 4.26267 23.6463 4.26267C23.6463 4.26267 23.739 4.27499 23.788 4.23628C23.788 4.23628 24.4823 4.70776 24.9965 5.46424C25.5124 6.22072 26.2452 7.3959 26.4026 7.58766C26.5268 7.74071 27.1424 8.72941 27.4223 9.17978C27.4747 9.26423 27.7178 9.51228 27.8 9.57034C28.5853 10.1157 29.8865 10.559 29.8865 10.559C29.4737 10.4165 28.4629 10.1192 27.7895 9.92395C27.7913 9.92747 27.793 9.93099 27.793 9.93099C27.793 9.93099 26.6073 9.64599 25.7748 9.88348C25.5072 9.96089 25.3043 10.0383 25.1242 10.0664C24.9598 10.0928 24.8111 10.1386 24.9073 10.1843C24.9196 10.1914 24.9318 10.2002 24.944 10.2089C25.2798 10.4341 25.5124 10.559 25.5124 10.559C24.9335 10.3585 23.9069 9.99432 23.7093 9.92395C23.0814 9.77441 22.1807 9.68821 21.35 9.91339C21.2556 9.93802 20.9618 10.0717 20.8113 10.1474C20.6137 10.2459 20.3461 10.3479 20.1677 10.2987C19.8547 10.2107 18.7441 9.78497 18.5937 9.66182C18.4433 9.53867 18.2404 9.16395 18.3629 8.75053C18.4853 8.3371 18.5832 7.79349 18.6864 7.60701C18.7913 7.42053 18.9417 7.01414 18.9417 7.01414C18.9417 7.01414 19.0222 7.2059 19.2303 7.17599C19.4384 7.14785 19.5941 6.99655 19.6466 6.79248C19.699 6.5884 19.8022 6.22776 19.8145 6.07646C19.8267 5.92517 19.8949 5.19859 19.8617 5.0473C19.8267 4.896 19.6011 4.69721 19.4227 4.84322V4.70072L19.4979 4.64619L19.4664 4.54415C19.4664 4.54415 19.5119 4.50897 19.5154 4.50017C19.5189 4.49137 19.5416 4.50017 19.5154 4.45443C19.4892 4.40869 19.4787 4.3823 19.4752 4.36471C19.4734 4.34711 19.4734 4.33832 19.4962 4.29786C19.5189 4.25739 19.5451 4.25387 19.5539 4.21341C19.5626 4.17295 19.5731 4.15008 19.5679 4.11489C19.5626 4.07971 19.5591 4.08675 19.5539 4.01813C19.5486 3.95128 19.5574 3.9161 19.5539 3.88443C19.5504 3.85276 19.5801 3.67156 19.5801 3.66101C19.5801 3.64869 19.5923 3.65221 19.5889 3.61527C19.5854 3.57656 19.5521 3.51675 19.5714 3.50795C19.5923 3.49915 19.6868 3.4798 19.6868 3.4798L19.6238 3.33379C19.6238 3.33379 19.6606 3.30212 19.6676 3.26341C19.6728 3.22647 19.699 3.24934 19.6763 3.20184C19.6536 3.1561 19.6501 3.14906 19.6483 3.11212C19.6448 3.07342 19.6431 3.10332 19.6448 3.02416C19.6483 2.94499 19.6518 2.95379 19.6448 2.89925C19.6396 2.84471 19.6431 2.84999 19.6308 2.78314C19.6186 2.71629 19.6273 2.69518 19.6081 2.65119C19.5871 2.60721 19.5906 2.61601 19.5714 2.58082C19.5504 2.54564 19.5364 2.52277 19.5311 2.50518C19.5241 2.48758 19.5241 2.48758 19.5241 2.48758L19.4577 2.35564L19.5276 2.29758L19.3895 2.17796H19.4927L19.3772 2.08999H19.4787L19.3457 2.00907L19.3807 1.94749C19.3807 1.94749 19.2968 1.80851 19.1988 1.68536C19.1009 1.56398 19.0362 1.47601 19.0362 1.47601H19.1079C19.1079 1.47601 18.9925 1.32824 18.961 1.29481C18.9295 1.26314 18.8718 1.21037 18.8718 1.21037H18.996C18.996 1.21037 18.8176 1.1224 18.7791 1.07842C18.7424 1.03444 18.5745 0.816294 18.4153 0.740646C18.2562 0.664998 18.1845 0.656201 18.0778 0.585831C17.9711 0.515461 17.7822 0.429258 17.7018 0.379999C17.6213 0.33074 17.4342 0.202314 17.2785 0.174166C17.1229 0.146018 17.1264 0.112592 17.0442 0.110833C16.9567 0.109074 16.8256 0.119629 16.7906 0.0932404C16.7556 0.0668516 16.6944 0.0633331 16.6647 0.0492591C16.6349 0.0351851 16.6034 0.0492591 16.5632 0.0351851C16.523 0.0193518 16.432 0.0404628 16.3988 0.0387036C16.3638 0.0369443 16.2432 0.014074 16.2432 0.014074C16.2432 0.014074 16.147 0.0105555 16.0963 0.00879627C16.0473 0.00351851 16.0001 0 16.0001 0C16.0001 0 15.9546 0.00351851 15.9039 0.00527776C15.8532 0.00703701 15.757 0.0105555 15.757 0.0105555C15.757 0.0105555 15.6363 0.0351851 15.6013 0.0369443C15.5663 0.0387036 15.4824 0.0193518 15.4422 0.0334258C15.4019 0.0492591 15.3635 0.0351851 15.3355 0.0474998C15.3075 0.0615739 15.2445 0.0650924 15.2096 0.0914812C15.1746 0.11787 15.0434 0.107314 14.963 0.109074C14.8825 0.110833 14.886 0.144259 14.7303 0.172407C14.5747 0.200555 14.3876 0.32898 14.3071 0.378239C14.2267 0.427499 14.0378 0.515461 13.9311 0.584072C13.8244 0.654442 13.751 0.663238 13.5918 0.738886C13.4326 0.814534 13.2648 1.03268 13.228 1.07666C13.1913 1.12064 13.0112 1.20861 13.0112 1.20861H13.1353C13.1353 1.20861 13.0776 1.26138 13.0461 1.29305C13.0147 1.32472 12.8992 1.47425 12.8992 1.47425H12.9709C12.9709 1.47425 12.908 1.56222 12.8083 1.68361C12.7103 1.80675 12.6264 1.94573 12.6264 1.94573L12.6614 2.00731L12.5285 2.08823H12.6299L12.5145 2.1762H12.6194L12.4812 2.29583L12.5512 2.35388L12.4847 2.48582C12.4847 2.48582 12.4847 2.48582 12.4795 2.50342C12.4742 2.52101 12.4585 2.54388 12.4393 2.57907C12.4183 2.61425 12.4218 2.60545 12.4008 2.64944C12.3798 2.69342 12.3885 2.71277 12.378 2.78138C12.3658 2.84823 12.3693 2.84295 12.3641 2.89749C12.3588 2.95203 12.3606 2.94323 12.3641 3.0224C12.3676 3.10156 12.3641 3.07166 12.3606 3.11036C12.3571 3.1473 12.3553 3.15434 12.3308 3.20008C12.3081 3.24758 12.3343 3.22295 12.3396 3.26166C12.3448 3.2986 12.3833 3.33203 12.3833 3.33203L12.3203 3.47804C12.3203 3.47804 12.4165 3.4974 12.4358 3.50619C12.4568 3.51499 12.4218 3.57656 12.4183 3.61351C12.4148 3.65045 12.427 3.64869 12.427 3.65925C12.427 3.6698 12.4568 3.85101 12.4533 3.88267C12.4498 3.91434 12.4585 3.94952 12.4533 4.01638C12.448 4.08323 12.4445 4.07795 12.4393 4.11313C12.434 4.14832 12.4445 4.17119 12.4533 4.21165C12.462 4.25212 12.4882 4.25563 12.511 4.2961C12.5337 4.33656 12.5337 4.34536 12.5302 4.36295C12.5267 4.38054 12.5162 4.40693 12.49 4.45267C12.4637 4.49841 12.4882 4.48961 12.49 4.49841C12.4935 4.50721 12.539 4.54239 12.539 4.54239L12.5075 4.64443L12.5827 4.69897V4.84146C12.4025 4.69545 12.1769 4.89424 12.1437 5.04554C12.1087 5.19683 12.1787 5.92341 12.1892 6.0747C12.2014 6.226 12.3046 6.58664 12.3571 6.79072C12.4095 6.99479 12.5652 7.14609 12.7733 7.17423C12.9814 7.20414 13.0619 7.01238 13.0619 7.01238C13.0619 7.01238 13.2123 7.41877 13.3172 7.60525C13.4222 7.79173 13.5201 8.33534 13.6408 8.74877C13.7614 9.16219 13.5603 9.53867 13.4099 9.66006C13.2595 9.78321 12.1489 10.2089 11.8359 10.2969C11.6033 10.362 11.2168 10.165 11.0349 10.0612C10.9719 10.026 10.8425 9.96793 10.797 9.95386C10.0642 9.72163 9.26147 9.74802 8.62836 9.8571C8.52868 9.87469 8.1719 9.97497 7.96377 10.0471C7.55802 10.1896 6.91967 10.4165 6.50692 10.559C6.50692 10.559 6.69931 10.4412 7.00012 10.2582C7.30618 10.0717 7.09281 10.1122 7.03685 10.1016C6.82348 10.0612 6.58038 9.98376 6.2271 9.88348C5.39461 9.64423 4.20884 9.93099 4.20884 9.93099V9.92922C3.53551 10.1245 2.53862 10.4183 2.12938 10.559C2.12938 10.559 3.52676 10.084 4.29979 9.51052C4.3505 9.47182 4.50091 9.30469 4.56212 9.20793C4.83321 8.77164 5.47156 7.74599 5.59923 7.58766C5.75489 7.3959 6.48943 6.21896 7.00537 5.46424C7.51955 4.70776 8.21387 4.23628 8.21387 4.23628C8.26284 4.27499 8.35553 4.26267 8.35553 4.26267C8.35553 4.26267 8.39926 4.29434 8.67733 4.38758C8.95541 4.48082 9.2125 4.41924 9.27547 4.3911C9.33843 4.36295 9.45735 4.28554 9.60251 4.3911C9.74767 4.49665 10.0677 4.51952 10.0677 4.51952C10.2006 4.75526 10.3895 4.5635 10.3895 4.5635C10.5837 4.62508 10.6291 4.5336 10.7201 4.46674C10.8093 4.39989 10.8477 4.29434 10.8477 4.29434C10.8477 4.29434 11.1048 4.27499 11.1765 4.16239C11.2482 4.05156 11.2115 3.81054 11.2115 3.81054C11.2115 3.81054 11.3077 3.74369 11.3304 3.6399C11.3532 3.53434 11.2465 3.1948 11.1591 2.95027C11.0716 2.70573 11.0611 2.60369 11.0489 2.36268C11.0384 2.12166 10.7446 1.91407 10.7446 1.91407C10.5487 1.72231 10.3388 1.7487 10.1149 1.81203C9.89109 1.8736 8.85747 2.2536 7.8466 2.62657C6.83572 2.99953 5.41735 4.36471 4.84545 4.81508C4.2753 5.26545 2.72401 6.71683 2.55436 6.93322C2.38472 7.15136 0.987331 9.17627 0.424178 9.84302C-0.138974 10.5098 -0.0532771 11.2557 0.17758 11.6586C0.408438 12.0614 1.45779 12.5118 3.10877 13.3738C4.75975 14.2341 6.42472 14.1426 7.5213 14.3291C8.61612 14.5156 8.73155 15.4234 8.87146 15.8878C9.00963 16.354 9.45735 17.3937 9.68996 17.7966C9.92082 18.1995 10.2461 19.3958 10.3685 19.8602C10.4927 20.3264 10.6589 21.7409 10.7201 22.0382C10.7813 22.3355 10.832 22.9319 10.7638 23.2397C10.6938 23.5476 10.7323 24.9005 10.7323 24.9005L16.0018 25.101L21.2713 24.9005C21.2713 24.9005 21.3098 23.5494 21.2398 23.2397C21.1699 22.9319 21.2223 22.3355 21.2836 22.0382C21.3448 21.7409 21.5109 20.3264 21.6351 19.8602C21.7593 19.394 22.0828 18.1995 22.3137 17.7966C22.5445 17.3937 22.9922 16.354 23.1322 15.8878C23.2703 15.4216 23.3875 14.5138 24.4823 14.3291C25.5772 14.1426 27.2439 14.2359 28.8949 13.3738C30.5458 12.5118 31.5952 12.0632 31.826 11.6586C32.0552 11.2557 32.1391 10.5098 31.5759 9.84302Z" fill="#FF4D24"/>
<path d="M24.2098 21.0614C24.7222 21.3429 25.0055 21.656 25.0073 21.9867C25.009 23.2305 20.9778 24.2491 16.0038 24.2615C11.0299 24.2738 6.99691 23.2763 6.99516 22.0307C6.99516 21.6595 7.35368 21.3094 7.98854 20.998C6.25361 21.5293 5.19727 22.233 5.19727 23.0054C5.19727 24.6573 10.0348 25.9978 16.0003 25.9978C21.9677 25.9978 26.8052 24.6591 26.8052 23.0054C26.8052 22.2647 25.8275 21.5856 24.2098 21.0614Z" fill="#FF4D24"/>
</g>
<defs>
<clipPath id="clip0_910_14944">
<rect width="32" height="26" fill="white"/>
</clipPath>
</defs>
</svg>
